<?xml version="1.0" encoding="UTF-8" standalone="no"?>
<!-- Created with Inkscape (http://www.inkscape.org/) -->

<svg
   version="1.1"
   id="svg2"
   width="666.66669"
   height="496.81332"
   viewBox="0 0 666.66669 496.81332"
   sodipodi:docname="6583018.eps"
   xmlns:inkscape="http://www.inkscape.org/namespaces/inkscape"
   xmlns:sodipodi="http://sodipodi.sourceforge.net/DTD/sodipodi-0.dtd"
   xmlns="http://www.w3.org/2000/svg"
   xmlns:svg="http://www.w3.org/2000/svg">
  <defs
     id="defs6" />
  <sodipodi:namedview
     id="namedview4"
     pagecolor="#ffffff"
     bordercolor="#000000"
     borderopacity="0.25"
     inkscape:showpageshadow="2"
     inkscape:pageopacity="0.0"
     inkscape:pagecheckerboard="0"
     inkscape:deskcolor="#d1d1d1" />
  <g
     id="g8"
     inkscape:groupmode="layer"
     inkscape:label="ink_ext_XXXXXX"
     transform="matrix(1.3333333,0,0,-1.3333333,0,496.81333)">
    <g
       id="g10"
       transform="scale(0.1)">
      <path
         d="m 0,449.129 h 5000 v 2.5 H 0 Z"
         style="fill:#e7e8e5;fill-opacity:1;fill-rule:nonzero;stroke:none"
         id="path12" />
      <path
         d="m 4167.79,290.672 h 331.22 v -2.5 h -331.22 v 2.5"
         style="fill:#e7e8e5;fill-opacity:1;fill-rule:nonzero;stroke:none"
         id="path14" />
      <path
         d="m 3225.27,261.039 h 86.9297 v 2.5 H 3225.27 Z"
         style="fill:#e7e8e5;fill-opacity:1;fill-rule:nonzero;stroke:none"
         id="path16" />
      <path
         d="m 3965.86,381.031 h 191.922 v 2.5 H 3965.86 Z"
         style="fill:#e7e8e5;fill-opacity:1;fill-rule:nonzero;stroke:none"
         id="path18" />
      <path
         d="m 524.59,364.23 h 431.934 v 2.5 H 524.59 Z"
         style="fill:#e7e8e5;fill-opacity:1;fill-rule:nonzero;stroke:none"
         id="path20" />
      <path
         d="m 1045.56,364.23 h 63.332 v 2.5 h -63.332 z"
         style="fill:#e7e8e5;fill-opacity:1;fill-rule:nonzero;stroke:none"
         id="path22" />
      <path
         d="m 1314.71,324.512 h 936.76 v -2.5 h -936.76 v 2.5"
         style="fill:#e7e8e5;fill-opacity:1;fill-rule:nonzero;stroke:none"
         id="path24" />
      <path
         d="m 439.152,3723.59 c -30.097,0 -54.582,-24.48 -54.582,-54.57 V 954.699 c 0,-30.097 24.485,-54.578 54.582,-54.578 H 2370.14 c 30.09,0 54.57,24.481 54.57,54.578 V 3669.02 c 0,30.09 -24.48,54.57 -54.57,54.57 H 439.152 M 2370.14,897.621 H 439.152 c -31.476,0 -57.082,25.598 -57.082,57.078 V 3669.02 c 0,31.46 25.606,57.07 57.082,57.07 H 2370.14 c 31.46,0 57.07,-25.61 57.07,-57.07 V 954.699 c 0,-31.48 -25.61,-57.078 -57.07,-57.078"
         style="fill:#e7e8e5;fill-opacity:1;fill-rule:nonzero;stroke:none"
         id="path26" />
      <path
         d="m 2602.12,3723.59 c -30.09,0 -54.57,-24.48 -54.57,-54.57 V 954.699 c 0,-30.097 24.48,-54.578 54.57,-54.578 H 4533.1 c 30.1,0 54.59,24.481 54.59,54.578 V 3669.02 c 0,30.09 -24.49,54.57 -54.59,54.57 H 2602.12 M 4533.1,897.621 H 2602.12 c -31.47,0 -57.07,25.598 -57.07,57.078 V 3669.02 c 0,31.46 25.6,57.07 57.07,57.07 H 4533.1 c 31.48,0 57.09,-25.61 57.09,-57.07 V 954.699 c 0,-31.48 -25.61,-57.078 -57.09,-57.078"
         style="fill:#e7e8e5;fill-opacity:1;fill-rule:nonzero;stroke:none"
         id="path28" />
      <path
         d="m 1964.31,1797.69 c 47.28,255.88 293.05,424.99 548.91,377.71 255.91,-47.28 425.01,-293.04 377.74,-548.92 -47.28,-255.88 -293.04,-424.99 -548.94,-377.72 -255.87,47.29 -424.98,293.05 -377.71,548.93 m -399.15,-447.3 -138.47,-115.81 197.3,-286.728 157.65,87.948 c 83.24,-79.691 181.52,-144.851 291.84,-189.839 l -15.96,-179.301 342.24,-63.23 49.16,173.152 c 119.12,2.578 234.18,28.348 340.4,73.027 l 115.83,-138.468 286.71,197.3 -87.93,157.629 c 79.69,83.27 144.84,181.52 189.83,291.84 l 179.29,-15.95 63.24,342.24 -173.16,49.17 c -2.6,119.12 -28.34,234.19 -73.01,340.42 l 138.45,115.8 -197.28,286.73 -157.64,-87.92 c -83.26,79.65 -181.51,144.85 -291.85,189.82 l 15.97,179.3 -342.24,63.25 -49.18,-173.18 c -119.1,-2.59 -234.19,-28.35 -340.4,-73 l -115.81,138.44 -286.73,-197.3 87.92,-157.66 c -79.67,-83.22 -144.83,-181.48 -189.84,-291.83 l -179.29,15.96 -63.25,-342.24 173.19,-49.18 c 2.59,-119.1 28.35,-234.15 73.02,-340.39"
         style="fill:#ededeb;fill-opacity:1;fill-rule:nonzero;stroke:none"
         id="path30" />
      <path
         d="m 3844.35,1884.83 c 14.94,80.89 92.63,134.33 173.51,119.39 80.89,-14.94 134.34,-92.62 119.41,-173.51 -14.96,-80.88 -92.64,-134.34 -173.53,-119.39 -80.88,14.94 -134.34,92.63 -119.39,173.51 m 29.46,-357.52 108.19,-19.99 15.53,54.73 c 37.66,0.82 74.03,8.97 107.61,23.09 l 36.61,-43.78 90.63,62.38 -27.79,49.83 c 25.19,26.31 45.78,57.38 60.01,92.25 l 56.66,-5.05 19.99,108.18 -54.73,15.55 c -0.82,37.66 -8.96,74.03 -23.09,107.6 l 43.78,36.61 -62.37,90.64 -49.83,-27.79 c -26.32,25.17 -57.37,45.78 -92.26,60.01 l 5.05,56.66 -108.19,20 -15.53,-54.74 c -37.66,-0.83 -74.03,-8.97 -107.61,-23.08 l -36.61,43.77 -90.63,-62.38 27.8,-49.84 c -25.19,-26.31 -45.79,-57.36 -60.01,-92.24 l -56.68,5.04 -19.99,-108.18 54.75,-15.54 c 0.81,-37.65 8.95,-74.02 23.07,-107.6 l -43.77,-36.61 62.37,-90.65 49.82,27.81 c 26.33,-25.18 57.39,-45.79 92.27,-60 l -5.05,-56.68"
         style="fill:#ededeb;fill-opacity:1;fill-rule:nonzero;stroke:none"
         id="path32" />
      <path
         d="m 814.57,1491.52 c 11.383,61.62 70.563,102.33 132.172,90.95 61.628,-11.39 102.338,-70.56 90.958,-132.17 -11.39,-61.62 -70.559,-102.34 -132.18,-90.95 -61.61,11.38 -102.332,70.56 -90.95,132.17 m 22.442,-272.34 82.414,-15.23 11.832,41.69 c 28.687,0.63 56.394,6.84 81.972,17.59 l 27.89,-33.35 69.04,47.52 -21.18,37.96 c 19.2,20.04 34.88,43.7 45.72,70.27 l 43.16,-3.84 15.23,82.4 -41.69,11.84 c -0.63,28.69 -6.83,56.4 -17.59,81.97 l 33.35,27.88 -47.51,69.05 -37.96,-21.17 c -20.05,19.18 -43.7,34.88 -70.28,45.72 l 3.85,43.16 -82.412,15.23 -11.832,-41.7 c -28.688,-0.63 -56.395,-6.83 -81.973,-17.58 l -27.887,33.34 -69.043,-47.51 21.176,-37.97 c -19.184,-20.04 -34.879,-43.69 -45.711,-70.26 l -43.176,3.84 -15.222,-82.41 41.699,-11.84 c 0.617,-28.67 6.824,-56.39 17.574,-81.96 l -33.34,-27.89 47.508,-69.05 37.953,21.18 c 20.055,-19.18 43.719,-34.88 70.289,-45.71 l -3.851,-43.17"
         style="fill:#ededeb;fill-opacity:1;fill-rule:nonzero;stroke:none"
         id="path34" />
      <path
         d="m 2291.56,3261.5 c 8.61,46.62 53.38,77.43 100,68.81 46.62,-8.61 77.42,-53.38 68.82,-100 -8.62,-46.62 -53.39,-77.43 -100.01,-68.81 -46.62,8.61 -77.43,53.39 -68.81,100 m 16.97,-206.05 62.36,-11.52 8.95,31.54 c 21.71,0.48 42.67,5.17 62.02,13.31 l 21.1,-25.24 52.24,35.96 -16.02,28.71 c 14.52,15.17 26.39,33.08 34.59,53.18 l 32.65,-2.91 11.53,62.34 -31.55,8.96 c -0.47,21.71 -5.16,42.67 -13.3,62.02 l 25.22,21.1 -35.94,52.24 -28.72,-16.02 c -15.17,14.51 -33.07,26.39 -53.17,34.59 l 2.91,32.65 -62.36,11.53 -8.95,-31.55 c -21.7,-0.47 -42.67,-5.17 -62.02,-13.3 l -21.1,25.23 -52.24,-35.95 16.02,-28.73 c -14.51,-15.16 -26.39,-33.05 -34.58,-53.16 l -32.66,2.91 -11.53,-62.36 31.55,-8.95 c 0.47,-21.7 5.17,-42.67 13.3,-62.02 l -25.22,-21.1 35.94,-52.24 28.72,16.03 c 15.17,-14.52 33.08,-26.4 53.18,-34.59 l -2.92,-32.66"
         style="fill:#ededeb;fill-opacity:1;fill-rule:nonzero;stroke:none"
         id="path36" />
      <path
         d="m 3333.57,2691.19 c 5.74,31.09 35.6,51.63 66.69,45.89 31.09,-5.74 51.64,-35.6 45.9,-66.69 -5.75,-31.09 -35.61,-51.64 -66.7,-45.9 -31.09,5.75 -51.64,35.61 -45.89,66.7 z m 11.32,-137.42 41.59,-7.69 5.97,21.04 c 14.47,0.32 28.45,3.45 41.36,8.88 l 14.07,-16.83 34.84,23.97 -10.69,19.16 c 9.69,10.11 17.61,22.05 23.07,35.46 l 21.78,-1.94 7.69,41.58 -21.04,5.97 c -0.31,14.48 -3.44,28.46 -8.87,41.36 l 16.82,14.07 -23.97,34.85 -19.16,-10.69 c -10.11,9.68 -22.05,17.6 -35.46,23.07 l 1.94,21.78 -41.58,7.69 -5.97,-21.04 c -14.48,-0.32 -28.46,-3.45 -41.37,-8.87 l -14.07,16.82 -34.83,-23.98 10.68,-19.15 c -9.68,-10.12 -17.6,-22.05 -23.07,-35.46 l -21.78,1.94 -7.68,-41.59 21.04,-5.97 c 0.31,-14.47 3.44,-28.45 8.87,-41.36 l -16.83,-14.07 23.97,-34.84 19.16,10.69 c 10.11,-9.68 22.06,-17.6 35.46,-23.07 l -1.94,-21.78"
         style="fill:#ededeb;fill-opacity:1;fill-rule:nonzero;stroke:none"
         id="path38" />
      <path
         d="m 1416.16,3192.32 c 5.75,31.09 35.61,51.64 66.69,45.89 31.1,-5.74 51.64,-35.6 45.9,-66.69 -5.74,-31.09 -35.6,-51.64 -66.7,-45.89 -31.09,5.74 -51.63,35.6 -45.89,66.69 m 11.32,-137.42 41.59,-7.69 5.97,21.04 c 14.48,0.32 28.46,3.45 41.36,8.88 l 14.08,-16.83 34.83,23.98 -10.68,19.15 c 9.68,10.11 17.6,22.06 23.07,35.46 l 21.78,-1.94 7.68,41.59 -21.03,5.97 c -0.32,14.47 -3.45,28.45 -8.88,41.36 l 16.83,14.07 -23.98,34.84 -19.15,-10.68 c -10.12,9.67 -22.05,17.6 -35.46,23.06 l 1.94,21.78 -41.59,7.69 -5.97,-21.04 c -14.47,-0.32 -28.45,-3.45 -41.36,-8.87 l -14.07,16.82 -34.84,-23.97 10.68,-19.16 c -9.68,-10.11 -17.6,-22.05 -23.06,-35.46 l -21.79,1.94 -7.68,-41.58 21.04,-5.97 c 0.31,-14.48 3.45,-28.46 8.87,-41.36 l -16.82,-14.08 23.97,-34.84 19.15,10.69 c 10.12,-9.68 22.06,-17.6 35.47,-23.07 l -1.95,-21.78"
         style="fill:#ededeb;fill-opacity:1;fill-rule:nonzero;stroke:none"
         id="path40" />
      <path
         d="m 3376.32,860.672 c 10.02,54.25 62.13,90.109 116.39,80.078 54.25,-10.02 90.11,-62.141 80.09,-116.391 -10.02,-54.257 -62.13,-90.109 -116.39,-80.078 -54.26,10.02 -90.11,62.129 -80.09,116.391 M 3276.2,838 c 0.55,-25.258 6.01,-49.66 15.49,-72.18 l -29.37,-24.558 41.84,-60.793 33.43,18.64 c 17.65,-16.89 38.48,-30.711 61.88,-40.25 l -3.39,-38.019 72.57,-13.399 10.42,36.707 c 25.26,0.551 49.66,6.024 72.18,15.493 l 24.55,-29.36 60.8,41.828 -18.64,33.43 c 16.89,17.652 30.71,38.481 40.25,61.883 l 38.02,-3.391 13.4,72.571 -36.71,10.418 c -0.55,25.261 -6.01,49.66 -15.48,72.179 l 29.35,24.563 -41.83,60.788 -33.43,-18.64 c -17.65,16.89 -38.48,30.71 -61.87,40.25 l 3.38,38.02 -72.57,13.41 -10.42,-36.72 c -25.26,-0.55 -49.65,-6.01 -72.19,-15.48 l -24.55,29.35 -60.79,-41.83 18.64,-33.422 C 3314.27,961.832 3300.45,941 3290.91,917.602 l -38.02,3.386 -13.4,-72.566 L 3276.2,838"
         style="fill:#ededeb;fill-opacity:1;fill-rule:nonzero;stroke:none"
         id="path42" />
      <path
         d="m 3904.32,1268.63 -111.73,-40.93 111.73,-40.59 v -41.93 l -159.7,60.71 v 43.62 l 159.7,60.73 v -41.61"
         style="fill:#dadbd8;fill-opacity:1;fill-rule:nonzero;stroke:none"
         id="path44" />
      <path
         d="m 4024.54,1392.78 h 46.63 l -110.71,-316.05 h -46.65 l 110.73,316.05"
         style="fill:#dadbd8;fill-opacity:1;fill-rule:nonzero;stroke:none"
         id="path46" />
      <path
         d="m 4236.99,1249.51 v -43.62 l -159.7,-60.71 v 41.93 l 111.72,40.59 -111.72,40.93 v 41.61 l 159.7,-60.73"
         style="fill:#dadbd8;fill-opacity:1;fill-rule:nonzero;stroke:none"
         id="path48" />
      <path
         d="m 1128.43,734.859 c 16.02,-4.879 23.34,-14.98 23.34,-39.027 v -55.754 c 0,-16.367 8.37,-25.789 25.44,-25.789 h 6.28 v -42.5 h -20.22 c -43.55,0 -65.85,22.301 -65.85,62.383 v 63.047 c 0,11.152 -5.93,16.39 -15.33,16.39 h -11.51 v 42.5 h 11.51 c 9.4,0 15.33,5.243 15.33,16.391 v 63.07 c 0,40.059 22.3,62.36 65.85,62.36 h 20.22 v -42.5 h -6.28 c -17.07,0 -25.44,-9.41 -25.44,-25.789 v -55.75 c 0,-24.051 -7.32,-34.153 -23.34,-39.032"
         style="fill:#dadbd8;fill-opacity:1;fill-rule:nonzero;stroke:none"
         id="path50" />
      <path
         d="m 1405.58,756.109 v -42.5 h -11.51 c -9.41,0 -15.34,-5.238 -15.34,-16.39 v -63.047 c 0,-40.082 -22.3,-62.383 -65.85,-62.383 h -20.21 v 42.5 h 6.28 c 17.07,0 25.44,9.422 25.44,25.789 v 55.754 c 0,24.047 7.3,34.148 23.33,39.027 -16.03,4.879 -23.33,14.981 -23.33,39.032 v 55.75 c 0,16.379 -8.37,25.789 -25.44,25.789 h -6.28 v 42.5 h 20.21 c 43.55,0 65.85,-22.301 65.85,-62.36 V 772.5 c 0,-11.148 5.93,-16.391 15.34,-16.391 h 11.51"
         style="fill:#dadbd8;fill-opacity:1;fill-rule:nonzero;stroke:none"
         id="path52" />
      <path
         d="m 984.891,2764.36 c 0,68.52 52.599,117.55 123.399,117.55 39.29,0 72.09,-14.29 93.52,-40.27 l -33.78,-31.17 c -15.25,17.53 -34.41,26.63 -57.15,26.63 -42.54,0 -72.74,-29.88 -72.74,-72.74 0,-42.86 30.2,-72.74 72.74,-72.74 22.74,0 41.9,9.09 57.15,26.95 l 33.78,-31.17 c -21.43,-26.31 -54.23,-40.6 -93.85,-40.6 -70.47,0 -123.069,49.04 -123.069,117.56"
         style="fill:#dadbd8;fill-opacity:1;fill-rule:nonzero;stroke:none"
         id="path54" />
      <path
         d="m 1383.13,2744.55 h -56.5 v -55.21 h -41.9 v 55.21 h -56.17 v 39.61 h 56.17 v 55.21 h 41.9 v -55.21 h 56.5 v -39.61"
         style="fill:#dadbd8;fill-opacity:1;fill-rule:nonzero;stroke:none"
         id="path56" />
      <path
         d="m 1579.71,2744.55 h -56.51 v -55.21 h -41.89 v 55.21 h -56.18 v 39.61 h 56.18 v 55.21 h 41.89 v -55.21 h 56.51 v -39.61"
         style="fill:#dadbd8;fill-opacity:1;fill-rule:nonzero;stroke:none"
         id="path58" />
      <path
         d="m 1820.55,1619.3 32.89,39.44 c 13.87,-18.62 29.22,-28.12 47.48,-28.12 23.74,0 36.16,14.25 36.16,42.37 v 121.66 h -89.86 v 47.48 h 148.68 v -165.85 c 0,-63.2 -31.79,-94.25 -92.06,-94.25 -34.34,0 -64.65,13.15 -83.29,37.27"
         style="fill:#dadbd8;fill-opacity:1;fill-rule:nonzero;stroke:none"
         id="path60" />
      <path
         d="m 2031.43,1604.68 19,40.92 c 17.52,-11.32 44.2,-19 68.31,-19 26.3,0 36.16,6.95 36.16,17.9 0,32.15 -118.71,-0.73 -118.71,77.81 0,37.27 33.59,63.56 90.95,63.56 27.03,0 56.98,-6.2 75.62,-17.16 l -19,-40.56 c -19.36,10.96 -38.72,14.62 -56.62,14.62 -25.58,0 -36.54,-8.04 -36.54,-18.26 0,-33.61 118.73,-1.1 118.73,-78.54 0,-36.54 -33.97,-62.48 -92.79,-62.48 -33.24,0 -66.85,9.15 -85.11,21.19"
         style="fill:#dadbd8;fill-opacity:1;fill-rule:nonzero;stroke:none"
         id="path62" />
      <path
         d="M 4438.89,113.238 C 4438.89,50.6992 3570.82,0 2500,0 1429.18,0 561.109,50.6992 561.109,113.238 c 0,62.532 868.071,113.231 1938.891,113.231 1070.82,0 1938.89,-50.699 1938.89,-113.231"
         style="fill:#f3f2f1;fill-opacity:1;fill-rule:nonzero;stroke:none"
         id="path64" />
      <path
         d="m 3259.31,3001.82 h -298.32 c -12.54,0 -22.7,10.16 -22.7,22.7 v 298.32 c 0,12.54 10.16,22.7 22.7,22.7 h 298.32 c 12.54,0 22.7,-10.16 22.7,-22.7 v -298.32 c 0,-12.54 -10.16,-22.7 -22.7,-22.7"
         style="fill:#406fbf;fill-opacity:1;fill-rule:nonzero;stroke:none"
         id="path66" />
      <path
         d="m 3259.31,3001.82 h -298.32 c -12.54,0 -22.7,10.16 -22.7,22.7 v 298.32 c 0,12.54 10.16,22.7 22.7,22.7 h 298.32 c 12.54,0 22.7,-10.16 22.7,-22.7 v -298.32 c 0,-12.54 -10.16,-22.7 -22.7,-22.7"
         style="fill:#7da6dd;fill-opacity:1;fill-rule:nonzero;stroke:none"
         id="path68" />
      <path
         d="m 3064.02,3191.77 -59.65,-21.85 59.65,-21.68 v -22.39 l -85.27,32.42 v 23.29 l 85.27,32.42 v -22.21"
         style="fill:#ffffff;fill-opacity:1;fill-rule:nonzero;stroke:none"
         id="path70" />
      <path
         d="m 3128.15,3258.05 h 24.9 l -59.11,-168.75 h -24.9 l 59.11,168.75"
         style="fill:#ffffff;fill-opacity:1;fill-rule:nonzero;stroke:none"
         id="path72" />
      <path
         d="m 3241.55,3181.56 v -23.29 l -85.27,-32.42 v 22.39 l 59.65,21.68 -59.65,21.85 v 22.21 l 85.27,-32.42"
         style="fill:#ffffff;fill-opacity:1;fill-rule:nonzero;stroke:none"
         id="path74" />
      <path
         d="m 3014.01,2939.05 v -83.52 h -19.33 v 34.24 h -37.95 v -34.24 h -19.33 v 83.52 h 19.33 v -32.93 h 37.95 v 32.93 h 19.33"
         style="fill:#17282f;fill-opacity:1;fill-rule:nonzero;stroke:none"
         id="path76" />
      <path
         d="m 3051.18,2923.3 h -26.73 v 15.75 h 72.79 v -15.75 h -26.73 v -67.77 h -19.33 v 67.77"
         style="fill:#17282f;fill-opacity:1;fill-rule:nonzero;stroke:none"
         id="path78" />
      <path
         d="m 3183.67,2855.53 -0.11,50.11 -24.59,-41.28 h -8.71 l -24.46,40.21 v -49.04 h -18.14 v 83.52 h 15.99 l 31.27,-51.9 30.78,51.9 h 15.87 l 0.24,-83.52 h -18.14"
         style="fill:#17282f;fill-opacity:1;fill-rule:nonzero;stroke:none"
         id="path80" />
      <path
         d="m 3221.68,2939.05 h 19.33 v -67.77 h 41.89 v -15.75 h -61.22 v 83.52"
         style="fill:#17282f;fill-opacity:1;fill-rule:nonzero;stroke:none"
         id="path82" />
      <path
         d="m 3014.01,2855.53 h -19.33 v 34.24 h -37.95 v -34.24 h -19.33 v 83.52 h 19.33 v -32.93 h 37.95 v 32.93 h 19.33 v -83.52"
         style="fill:#9ba6a6;fill-opacity:1;fill-rule:nonzero;stroke:none"
         id="path84" />
      <path
         d="m 3070.51,2855.53 h -19.33 v 67.77 h -26.73 v 15.75 h 72.79 v -15.75 h -26.73 v -67.77"
         style="fill:#9ba6a6;fill-opacity:1;fill-rule:nonzero;stroke:none"
         id="path86" />
      <path
         d="m 3201.81,2855.53 h -18.14 l -0.11,50.11 -24.59,-41.28 h -8.71 l -24.46,40.21 v -49.04 h -18.14 v 83.52 h 15.99 l 31.27,-51.9 30.78,51.9 h 15.87 l 0.24,-83.52"
         style="fill:#9ba6a6;fill-opacity:1;fill-rule:nonzero;stroke:none"
         id="path88" />
      <path
         d="m 3282.9,2855.53 h -61.22 v 83.52 h 19.33 v -67.77 h 41.89 v -15.75"
         style="fill:#9ba6a6;fill-opacity:1;fill-rule:nonzero;stroke:none"
         id="path90" />
      <path
         d="m 3994.39,2818.62 h -298.32 c -12.54,0 -22.7,10.16 -22.7,22.7 v 298.32 c 0,12.54 10.16,22.7 22.7,22.7 h 298.32 c 12.54,0 22.7,-10.16 22.7,-22.7 v -298.32 c 0,-12.54 -10.16,-22.7 -22.7,-22.7"
         style="fill:#406fbf;fill-opacity:1;fill-rule:nonzero;stroke:none"
         id="path92" />
      <path
         d="m 3994.39,2818.62 h -298.32 c -12.54,0 -22.7,10.16 -22.7,22.7 v 298.32 c 0,12.54 10.16,22.7 22.7,22.7 h 298.32 c 12.54,0 22.7,-10.16 22.7,-22.7 v -298.32 c 0,-12.54 -10.16,-22.7 -22.7,-22.7"
         style="fill:#7da6dd;fill-opacity:1;fill-rule:nonzero;stroke:none"
         id="path94" />
      <path
         d="m 3788.9,2990.48 c 8.24,-2.51 12,-7.7 12,-20.07 v -28.66 c 0,-8.42 4.3,-13.25 13.07,-13.25 h 3.23 v -21.86 h -10.39 c -22.39,0 -33.86,11.47 -33.86,32.07 v 32.42 c 0,5.73 -3.04,8.42 -7.88,8.42 h -5.91 v 21.85 h 5.91 c 4.84,0 7.88,2.69 7.88,8.43 v 32.42 c 0,20.6 11.47,32.06 33.86,32.06 h 10.39 v -21.85 h -3.23 c -8.77,0 -13.07,-4.83 -13.07,-13.26 v -28.66 c 0,-12.36 -3.76,-17.56 -12,-20.06"
         style="fill:#ffffff;fill-opacity:1;fill-rule:nonzero;stroke:none"
         id="path96" />
      <path
         d="m 3931.3,3001.4 v -21.85 h -5.91 c -4.83,0 -7.88,-2.69 -7.88,-8.42 v -32.42 c 0,-20.6 -11.47,-32.07 -33.86,-32.07 h -10.39 v 21.86 h 3.23 c 8.77,0 13.07,4.83 13.07,13.25 v 28.66 c 0,12.37 3.76,17.56 12.01,20.07 -8.25,2.5 -12.01,7.7 -12.01,20.06 v 28.66 c 0,8.43 -4.3,13.26 -13.07,13.26 h -3.23 v 21.85 h 10.39 c 22.39,0 33.86,-11.46 33.86,-32.06 v -32.42 c 0,-5.74 3.05,-8.43 7.88,-8.43 h 5.91"
         style="fill:#ffffff;fill-opacity:1;fill-rule:nonzero;stroke:none"
         id="path98" />
      <path
         d="m 3729.68,2712.78 c 0,25.17 19.33,43.19 45.34,43.19 14.44,0 26.49,-5.25 34.36,-14.79 l -12.4,-11.46 c -5.61,6.45 -12.65,9.79 -21,9.79 -15.63,0 -26.73,-10.98 -26.73,-26.73 0,-15.75 11.1,-26.73 26.73,-26.73 8.35,0 15.39,3.34 21,9.9 l 12.4,-11.45 c -7.87,-9.67 -19.92,-14.92 -34.48,-14.92 -25.89,0 -45.22,18.02 -45.22,43.2"
         style="fill:#17282f;fill-opacity:1;fill-rule:nonzero;stroke:none"
         id="path100" />
      <path
         d="m 3815.17,2679.25 6.56,14.56 c 7.04,-5.13 17.54,-8.71 27.56,-8.71 11.46,0 16.11,3.81 16.11,8.94 0,15.64 -48.56,4.89 -48.56,35.92 0,14.2 11.45,26.01 35.2,26.01 10.5,0 21.24,-2.51 29,-7.4 l -5.97,-14.67 c -7.76,4.41 -15.75,6.56 -23.15,6.56 -11.46,0 -15.87,-4.29 -15.87,-9.54 0,-15.4 48.56,-4.78 48.56,-35.44 0,-13.96 -11.57,-25.9 -35.44,-25.9 -13.24,0 -26.61,3.94 -34,9.67"
         style="fill:#17282f;fill-opacity:1;fill-rule:nonzero;stroke:none"
         id="path102" />
      <path
         d="m 3891.34,2679.25 6.56,14.56 c 7.04,-5.13 17.54,-8.71 27.56,-8.71 11.46,0 16.11,3.81 16.11,8.94 0,15.64 -48.56,4.89 -48.56,35.92 0,14.2 11.45,26.01 35.2,26.01 10.5,0 21.24,-2.51 29,-7.4 l -5.97,-14.67 c -7.76,4.41 -15.75,6.56 -23.15,6.56 -11.46,0 -15.87,-4.29 -15.87,-9.54 0,-15.4 48.57,-4.78 48.57,-35.44 0,-13.96 -11.58,-25.9 -35.44,-25.9 -13.25,0 -26.61,3.94 -34.01,9.67"
         style="fill:#17282f;fill-opacity:1;fill-rule:nonzero;stroke:none"
         id="path104" />
      <path
         d="m 3774.9,2669.58 c -25.89,0 -45.22,18.02 -45.22,43.2 0,25.17 19.33,43.19 45.34,43.19 14.44,0 26.49,-5.25 34.36,-14.79 l -12.4,-11.46 c -5.61,6.45 -12.65,9.79 -21,9.79 -15.63,0 -26.73,-10.98 -26.73,-26.73 v 0 0 c 0,-15.75 11.1,-26.73 26.73,-26.73 8.35,0 15.39,3.34 21,9.9 l 12.4,-11.45 c -7.87,-9.67 -19.92,-14.92 -34.48,-14.92"
         style="fill:#9ba6a6;fill-opacity:1;fill-rule:nonzero;stroke:none"
         id="path106" />
      <path
         d="m 3849.17,2669.58 c -13.24,0 -26.61,3.94 -34,9.67 l 6.56,14.56 c 7.04,-5.13 17.54,-8.71 27.56,-8.71 11.46,0 16.11,3.81 16.11,8.94 v 0 0 c 0,15.64 -48.56,4.89 -48.56,35.92 0,14.2 11.45,26.01 35.2,26.01 10.5,0 21.24,-2.51 29,-7.4 l -5.97,-14.67 c -7.76,4.41 -15.75,6.56 -23.15,6.56 -11.46,0 -15.87,-4.29 -15.87,-9.54 v 0 0 c 0,-15.4 48.56,-4.78 48.56,-35.44 0,-13.96 -11.57,-25.9 -35.44,-25.9"
         style="fill:#9ba6a6;fill-opacity:1;fill-rule:nonzero;stroke:none"
         id="path108" />
      <path
         d="m 3925.35,2669.58 c -13.25,0 -26.61,3.94 -34.01,9.67 l 6.56,14.56 c 7.04,-5.13 17.54,-8.71 27.56,-8.71 11.46,0 16.11,3.81 16.11,8.94 v 0 0 c 0,15.64 -48.56,4.89 -48.56,35.92 0,14.2 11.45,26.01 35.2,26.01 10.5,0 21.24,-2.51 29,-7.4 l -5.97,-14.67 c -7.76,4.41 -15.75,6.56 -23.15,6.56 -11.46,0 -15.87,-4.29 -15.87,-9.54 v 0 0 c 0,-15.4 48.57,-4.78 48.57,-35.44 0,-13.96 -11.58,-25.9 -35.44,-25.9"
         style="fill:#9ba6a6;fill-opacity:1;fill-rule:nonzero;stroke:none"
         id="path110" />
      <path
         d="m 1485.52,2309.03 h 1225.11 v 886.773 H 1485.52 Z"
         style="fill:#040606;fill-opacity:1;fill-rule:nonzero;stroke:none"
         id="path112" />
      <path
         d="m 2214.92,2309.03 h -558.77 v 803.87 h 1054.48 v -640.72 h -495.71 v -163.15 m -430.95,176.6 c -5.52,0 -10,-4.48 -10,-10 0,-5.53 4.48,-10 10,-10 h 358.95 c 5.52,0 10,4.47 10,10 0,5.52 -4.48,10 -10,10 h -358.95 m 355.35,65.27 c -5.53,0 -10,-4.48 -10,-10 0,-5.52 4.47,-10 10,-10 h 201.76 c 5.52,0 10,4.48 10,10 0,5.52 -4.48,10 -10,10 h -201.76 m -355.35,0 c -5.52,0 -10,-4.48 -10,-10 0,-5.52 4.48,-10 10,-10 h 311.83 c 5.52,0 10,4.48 10,10 0,5.52 -4.48,10 -10,10 h -311.83 m 210.95,65.28 c -5.52,0 -10,-4.48 -10,-10 0,-5.52 4.48,-10 10,-10 h 474.73 c 5.52,0 10,4.48 10,10 0,5.52 -4.48,10 -10,10 h -474.73 m -240.97,0 c -5.52,0 -10,-4.48 -10,-10 0,-5.52 4.48,-10 10,-10 h 179.65 c 5.53,0 10,4.48 10,10 0,5.52 -4.47,10 -10,10 h -179.65 m 395.26,65.27 c -5.52,0 -10,-4.48 -10,-10 0,-5.52 4.48,-10 10,-10 h 320.44 c 5.52,0 10,4.48 10,10 0,5.52 -4.48,10 -10,10 h -320.44 m -365.24,0 c -5.52,0 -10,-4.48 -10,-10 0,-5.52 4.48,-10 10,-10 h 313.81 c 5.53,0 10,4.48 10,10 0,5.52 -4.47,10 -10,10 h -313.81 m 0,65.28 c -5.52,0 -10,-4.48 -10,-10 0,-5.53 4.48,-10 10,-10 h 278.9 c 5.52,0 10,4.47 10,10 0,5.52 -4.48,10 -10,10 h -278.9 m 244.58,65.27 c -5.52,0 -10,-4.48 -10,-10 0,-5.52 4.48,-10 10,-10 h 326.37 c 5.52,0 10,4.48 10,10 0,5.52 -4.48,10 -10,10 h -326.37 m -274.6,0 c -5.52,0 -10,-4.48 -10,-10 0,-5.52 4.48,-10 10,-10 h 207.35 c 5.52,0 10,4.48 10,10 0,5.52 -4.48,10 -10,10 h -207.35 m 446.69,65.28 c -5.52,0 -10,-4.48 -10,-10 0,-5.53 4.48,-10 10,-10 h 269.01 c 5.52,0 10,4.47 10,10 0,5.52 -4.48,10 -10,10 h -269.01 m -446.69,0 c -5.52,0 -10,-4.48 -10,-10 0,-5.53 4.48,-10 10,-10 h 375.48 c 5.52,0 10,4.47 10,10 0,5.52 -4.48,10 -10,10 h -375.48 m 30.02,65.27 c -5.52,0 -10,-4.48 -10,-10 0,-5.52 4.48,-10 10,-10 h 582.82 c 5.52,0 10,4.48 10,10 0,5.52 -4.48,10 -10,10 h -582.82 m 252.49,65.27 c -5.52,0 -10,-4.47 -10,-10 0,-5.52 4.48,-10 10,-10 h 433.19 c 5.52,0 10,4.48 10,10 0,5.53 -4.48,10 -10,10 h -433.19 m -282.51,0 c -5.52,0 -10,-4.47 -10,-10 0,-5.52 4.48,-10 10,-10 h 223.17 c 5.52,0 10,4.48 10,10 0,5.53 -4.48,10 -10,10 h -223.17"
         style="fill:#e0e1de;fill-opacity:1;fill-rule:nonzero;stroke:none"
         id="path114" />
      <path
         d="m 1656.15,2309.03 h -170.63 v 886.77 h 170.63 -170.63 v -82.9 h 170.63 v -803.87 m -82.77,176.6 c -5.52,0 -10,-4.48 -10,-10 0,-5.53 4.48,-10 10,-10 h 0.46 c 5.52,0 9.77,4.47 9.77,10 0,5.52 -4.71,10 -10.23,10 m 0,65.27 c -5.52,0 -10,-4.48 -10,-10 0,-5.52 4.48,-10 10,-10 h 0.46 c 5.52,0 9.77,4.48 9.77,10 0,5.52 -4.71,10 -10.23,10 m 0,65.28 c -5.52,0 -10,-4.48 -10,-10 0,-5.52 4.48,-10 10,-10 h 0.46 c 5.52,0 9.77,4.48 9.77,10 0,5.52 -4.71,10 -10.23,10 m 0,65.27 c -5.52,0 -10,-4.48 -10,-10 0,-5.52 4.48,-10 10,-10 h 0.46 c 5.52,0 9.77,4.48 9.77,10 0,5.52 -4.71,10 -10.23,10 m 0,65.28 c -5.52,0 -10,-4.48 -10,-10 0,-5.53 4.48,-10 10,-10 h 0.46 c 5.52,0 9.77,4.47 9.77,10 0,5.52 -4.71,10 -10.23,10 m 0,65.27 c -5.52,0 -10,-4.48 -10,-10 0,-5.52 4.48,-10 10,-10 h 0.46 c 5.52,0 9.77,4.48 9.77,10 0,5.52 -4.71,10 -10.23,10 m 0,65.28 c -5.52,0 -10,-4.48 -10,-10 0,-5.53 4.48,-10 10,-10 h 0.46 c 5.52,0 9.77,4.47 9.77,10 0,5.52 -4.71,10 -10.23,10 m 0,65.27 c -5.52,0 -10,-4.48 -10,-10 0,-5.52 4.48,-10 10,-10 h 0.46 c 5.52,0 9.77,4.48 9.77,10 0,5.52 -4.71,10 -10.23,10 m 0,65.27 c -5.52,0 -10,-4.47 -10,-10 0,-5.52 4.48,-10 10,-10 h 0.46 c 5.52,0 9.77,4.48 9.77,10 0,5.53 -4.71,10 -10.23,10"
         style="fill:#c5c6c5;fill-opacity:1;fill-rule:nonzero;stroke:none"
         id="path116" />
      <path
         d="m 1485.52,3112.9 h 1225.11 v 82.9023 H 1485.52 Z"
         style="fill:#406fbf;fill-opacity:1;fill-rule:nonzero;stroke:none"
         id="path118" />
      <path
         d="m 1977.12,2987.82 h -223.17 c -5.52,0 -10,4.48 -10,10 0,5.53 4.48,10 10,10 h 223.17 c 5.52,0 10,-4.47 10,-10 0,-5.52 -4.48,-10 -10,-10"
         style="fill:#acaead;fill-opacity:1;fill-rule:nonzero;stroke:none"
         id="path120" />
      <path
         d="m 2469.65,2987.82 h -433.19 c -5.52,0 -10,4.48 -10,10 0,5.53 4.48,10 10,10 h 433.19 c 5.52,0 10,-4.47 10,-10 0,-5.52 -4.48,-10 -10,-10"
         style="fill:#acaead;fill-opacity:1;fill-rule:nonzero;stroke:none"
         id="path122" />
      <path
         d="m 2366.79,2922.55 h -582.82 c -5.52,0 -10,4.48 -10,10 0,5.52 4.48,10 10,10 h 582.82 c 5.52,0 10,-4.48 10,-10 0,-5.52 -4.48,-10 -10,-10"
         style="fill:#acaead;fill-opacity:1;fill-rule:nonzero;stroke:none"
         id="path124" />
      <path
         d="m 2129.43,2857.28 h -375.48 c -5.52,0 -10,4.47 -10,10 0,5.52 4.48,10 10,10 h 375.48 c 5.52,0 10,-4.48 10,-10 0,-5.53 -4.48,-10 -10,-10"
         style="fill:#acaead;fill-opacity:1;fill-rule:nonzero;stroke:none"
         id="path126" />
      <path
         d="m 2469.65,2857.28 h -269.01 c -5.52,0 -10,4.47 -10,10 0,5.52 4.48,10 10,10 h 269.01 c 5.52,0 10,-4.48 10,-10 0,-5.53 -4.48,-10 -10,-10"
         style="fill:#acaead;fill-opacity:1;fill-rule:nonzero;stroke:none"
         id="path128" />
      <path
         d="m 1961.3,2792 h -207.35 c -5.52,0 -10,4.48 -10,10 0,5.52 4.48,10 10,10 h 207.35 c 5.52,0 10,-4.48 10,-10 0,-5.52 -4.48,-10 -10,-10"
         style="fill:#acaead;fill-opacity:1;fill-rule:nonzero;stroke:none"
         id="path130" />
      <path
         d="m 2354.92,2792 h -326.37 c -5.52,0 -10,4.48 -10,10 0,5.52 4.48,10 10,10 h 326.37 c 5.52,0 10,-4.48 10,-10 0,-5.52 -4.48,-10 -10,-10"
         style="fill:#acaead;fill-opacity:1;fill-rule:nonzero;stroke:none"
         id="path132" />
      <path
         d="m 2062.87,2726.73 h -278.9 c -5.52,0 -10,4.47 -10,10 0,5.52 4.48,10 10,10 h 278.9 c 5.52,0 10,-4.48 10,-10 0,-5.53 -4.48,-10 -10,-10"
         style="fill:#acaead;fill-opacity:1;fill-rule:nonzero;stroke:none"
         id="path134" />
      <path
         d="m 2097.78,2661.45 h -313.81 c -5.52,0 -10,4.48 -10,10 0,5.52 4.48,10 10,10 h 313.81 c 5.53,0 10,-4.48 10,-10 0,-5.52 -4.47,-10 -10,-10"
         style="fill:#acaead;fill-opacity:1;fill-rule:nonzero;stroke:none"
         id="path136" />
      <path
         d="m 2469.65,2661.45 h -320.44 c -5.52,0 -10,4.48 -10,10 0,5.52 4.48,10 10,10 h 320.44 c 5.52,0 10,-4.48 10,-10 0,-5.52 -4.48,-10 -10,-10"
         style="fill:#acaead;fill-opacity:1;fill-rule:nonzero;stroke:none"
         id="path138" />
      <path
         d="m 1933.6,2596.18 h -179.65 c -5.52,0 -10,4.48 -10,10 0,5.52 4.48,10 10,10 h 179.65 c 5.53,0 10,-4.48 10,-10 0,-5.52 -4.47,-10 -10,-10"
         style="fill:#acaead;fill-opacity:1;fill-rule:nonzero;stroke:none"
         id="path140" />
      <path
         d="m 2469.65,2596.18 h -474.73 c -5.52,0 -10,4.48 -10,10 0,5.52 4.48,10 10,10 h 474.73 c 5.52,0 10,-4.48 10,-10 0,-5.52 -4.48,-10 -10,-10"
         style="fill:#acaead;fill-opacity:1;fill-rule:nonzero;stroke:none"
         id="path142" />
      <path
         d="m 2095.8,2530.9 h -311.83 c -5.52,0 -10,4.48 -10,10 0,5.52 4.48,10 10,10 h 311.83 c 5.52,0 10,-4.48 10,-10 0,-5.52 -4.48,-10 -10,-10"
         style="fill:#acaead;fill-opacity:1;fill-rule:nonzero;stroke:none"
         id="path144" />
      <path
         d="m 2341.08,2530.9 h -201.76 c -5.53,0 -10,4.48 -10,10 0,5.52 4.47,10 10,10 h 201.76 c 5.52,0 10,-4.48 10,-10 0,-5.52 -4.48,-10 -10,-10"
         style="fill:#acaead;fill-opacity:1;fill-rule:nonzero;stroke:none"
         id="path146" />
      <path
         d="m 2142.92,2465.63 h -358.95 c -5.52,0 -10,4.47 -10,10 0,5.52 4.48,10 10,10 h 358.95 c 5.52,0 10,-4.48 10,-10 0,-5.53 -4.48,-10 -10,-10"
         style="fill:#acaead;fill-opacity:1;fill-rule:nonzero;stroke:none"
         id="path148" />
      <path
         d="m 2657.88,3136.64 c -9.47,0 -17.14,7.67 -17.14,17.14 0,9.47 7.67,17.15 17.14,17.15 9.47,0 17.14,-7.68 17.14,-17.15 0,-9.47 -7.67,-17.14 -17.14,-17.14"
         style="fill:#7da6dd;fill-opacity:1;fill-rule:nonzero;stroke:none"
         id="path150" />
      <path
         d="m 2597.84,3136.64 c -9.47,0 -17.14,7.67 -17.14,17.14 0,9.47 7.67,17.15 17.14,17.15 9.47,0 17.14,-7.68 17.14,-17.15 0,-9.47 -7.67,-17.14 -17.14,-17.14"
         style="fill:#7da6dd;fill-opacity:1;fill-rule:nonzero;stroke:none"
         id="path152" />
      <path
         d="m 2537.8,3136.64 c -9.46,0 -17.14,7.67 -17.14,17.14 0,9.47 7.68,17.15 17.14,17.15 9.47,0 17.15,-7.68 17.15,-17.15 0,-9.47 -7.68,-17.14 -17.15,-17.14"
         style="fill:#7da6dd;fill-opacity:1;fill-rule:nonzero;stroke:none"
         id="path154" />
      <path
         d="m 1573.84,2987.82 h -0.46 c -5.52,0 -10,4.48 -10,10 0,5.53 4.48,10 10,10 5.52,0 10.23,-4.47 10.23,-10 0,-5.52 -4.25,-10 -9.77,-10"
         style="fill:#989a9a;fill-opacity:1;fill-rule:nonzero;stroke:none"
         id="path156" />
      <path
         d="m 1573.84,2922.55 h -0.46 c -5.52,0 -10,4.48 -10,10 0,5.52 4.48,10 10,10 5.52,0 10.23,-4.48 10.23,-10 0,-5.52 -4.25,-10 -9.77,-10"
         style="fill:#989a9a;fill-opacity:1;fill-rule:nonzero;stroke:none"
         id="path158" />
      <path
         d="m 1573.84,2857.28 h -0.46 c -5.52,0 -10,4.47 -10,10 0,5.52 4.48,10 10,10 5.52,0 10.23,-4.48 10.23,-10 0,-5.53 -4.25,-10 -9.77,-10"
         style="fill:#989a9a;fill-opacity:1;fill-rule:nonzero;stroke:none"
         id="path160" />
      <path
         d="m 1573.84,2792 h -0.46 c -5.52,0 -10,4.48 -10,10 0,5.52 4.48,10 10,10 5.52,0 10.23,-4.48 10.23,-10 0,-5.52 -4.25,-10 -9.77,-10"
         style="fill:#989a9a;fill-opacity:1;fill-rule:nonzero;stroke:none"
         id="path162" />
      <path
         d="m 1573.84,2726.73 h -0.46 c -5.52,0 -10,4.47 -10,10 0,5.52 4.48,10 10,10 5.52,0 10.23,-4.48 10.23,-10 0,-5.53 -4.25,-10 -9.77,-10"
         style="fill:#989a9a;fill-opacity:1;fill-rule:nonzero;stroke:none"
         id="path164" />
      <path
         d="m 1573.84,2661.45 h -0.46 c -5.52,0 -10,4.48 -10,10 0,5.52 4.48,10 10,10 5.52,0 10.23,-4.48 10.23,-10 0,-5.52 -4.25,-10 -9.77,-10"
         style="fill:#989a9a;fill-opacity:1;fill-rule:nonzero;stroke:none"
         id="path166" />
      <path
         d="m 1573.84,2596.18 h -0.46 c -5.52,0 -10,4.48 -10,10 0,5.52 4.48,10 10,10 5.52,0 10.23,-4.48 10.23,-10 0,-5.52 -4.25,-10 -9.77,-10"
         style="fill:#989a9a;fill-opacity:1;fill-rule:nonzero;stroke:none"
         id="path168" />
      <path
         d="m 1573.84,2530.9 h -0.46 c -5.52,0 -10,4.48 -10,10 0,5.52 4.48,10 10,10 5.52,0 10.23,-4.48 10.23,-10 0,-5.52 -4.25,-10 -9.77,-10"
         style="fill:#989a9a;fill-opacity:1;fill-rule:nonzero;stroke:none"
         id="path170" />
      <path
         d="m 1573.84,2465.63 h -0.46 c -5.52,0 -10,4.47 -10,10 0,5.52 4.48,10 10,10 5.52,0 10.23,-4.48 10.23,-10 0,-5.53 -4.25,-10 -9.77,-10"
         style="fill:#989a9a;fill-opacity:1;fill-rule:nonzero;stroke:none"
         id="path172" />
      <path
         d="M 2214.92,1444.32 H 3820.26 V 2472.18 H 2214.92 Z"
         style="fill:#17282f;fill-opacity:1;fill-rule:nonzero;stroke:none"
         id="path174" />
      <path
         d="M 3820.26,1444.32 H 2465.32 v 944.95 h 1354.94 v -228.59 -544.5 -171.86 M 2723.5,1681.95 c -5.53,0 -10,-4.47 -10,-10 0,-5.52 4.47,-10 10,-10 h 258.88 c 5.53,0 10,4.48 10,10 0,5.53 -4.47,10 -10,10 H 2723.5 m 255.28,65.28 c -5.52,0 -10,-4.47 -10,-10 0,-5.53 4.48,-10 10,-10 h 201.76 c 5.53,0 10,4.47 10,10 0,5.53 -4.47,10 -10,10 h -201.76 m -114.38,65.27 c -5.52,0 -10,-4.47 -10,-10 0,-5.53 4.48,-10 10,-10 h 344.65 c 5.52,0 10,4.47 10,10 0,5.53 -4.48,10 -10,10 H 2864.4 m -240.97,0 c -5.52,0 -10,-4.47 -10,-10 0,-5.53 4.48,-10 10,-10 h 179.66 c 5.52,0 10,4.47 10,10 0,5.53 -4.48,10 -10,10 h -179.66 m -100.06,130.55 c -5.52,0 -10,-4.47 -10,-10 0,-5.53 4.48,-10 10,-10 h 278.9 c 5.52,0 10,4.47 10,10 0,5.53 -4.48,10 -10,10 h -278.9 m 722.45,65.27 c -5.53,0 -10,-4.48 -10,-10 0,-5.52 4.47,-10 10,-10 h 366.96 c 5.52,0 10,4.48 10,10 0,5.52 -4.48,10 -10,10 h -366.96 m -722.45,130.55 c -5.52,0 -10,-4.48 -10,-10 0,-5.52 4.48,-10 10,-10 h 582.82 c 5.53,0 10,4.48 10,10 0,5.52 -4.47,10 -10,10 h -582.82 m 930.96,65.28 c -5.53,0 -10,-4.48 -10,-10 0,-5.53 4.47,-10 10,-10 h 168.45 c 5.53,0 10,4.47 10,10 0,5.52 -4.47,10 -10,10 h -168.45"
         style="fill:#e4e7e5;fill-opacity:1;fill-rule:nonzero;stroke:none"
         id="path176" />
      <path
         d="m 2465.32,1444.32 h -250.4 v 1027.86 h 250.4 -250.4 v -82.91 h 250.4 v -944.95 m -172.1,237.63 c -5.52,0 -10,-4.47 -10,-10 0,-5.52 4.48,-10 10,-10 h 108.8 c 5.52,0 10,4.48 10,10 0,5.53 -4.48,10 -10,10 h -108.8 m 0,65.28 c -5.52,0 -10,-4.47 -10,-10 0,-5.53 4.48,-10 10,-10 h 108.8 c 5.52,0 10,4.47 10,10 0,5.53 -4.48,10 -10,10 h -108.8 m 0,65.27 c -5.52,0 -10,-4.47 -10,-10 0,-5.53 4.48,-10 10,-10 h 108.8 c 5.52,0 10,4.47 10,10 0,5.53 -4.48,10 -10,10 h -108.8 m 0,65.27 c -5.52,0 -10,-4.47 -10,-10 0,-5.52 4.48,-10 10,-10 h 108.8 c 5.52,0 10,4.48 10,10 0,5.53 -4.48,10 -10,10 h -108.8 m 0,65.28 c -5.52,0 -10,-4.47 -10,-10 0,-5.53 4.48,-10 10,-10 h 108.8 c 5.52,0 10,4.47 10,10 0,5.53 -4.48,10 -10,10 h -108.8 m 0,65.27 c -5.52,0 -10,-4.48 -10,-10 0,-5.52 4.48,-10 10,-10 h 108.8 c 5.52,0 10,4.48 10,10 0,5.52 -4.48,10 -10,10 h -108.8 m 0,65.28 c -5.52,0 -10,-4.48 -10,-10 0,-5.52 4.48,-10 10,-10 h 108.8 c 5.52,0 10,4.48 10,10 0,5.52 -4.48,10 -10,10 h -108.8 m 0,65.27 c -5.52,0 -10,-4.48 -10,-10 0,-5.52 4.48,-10 10,-10 h 108.8 c 5.52,0 10,4.48 10,10 0,5.52 -4.48,10 -10,10 h -108.8 m 0,65.28 c -5.52,0 -10,-4.48 -10,-10 0,-5.53 4.48,-10 10,-10 h 108.8 c 5.52,0 10,4.47 10,10 0,5.52 -4.48,10 -10,10 h -108.8"
         style="fill:#c8cbca;fill-opacity:1;fill-rule:nonzero;stroke:none"
         id="path178" />
      <path
         d="m 2214.92,2389.27 h 1605.34 v 82.9102 H 2214.92 Z"
         style="fill:#406fbf;fill-opacity:1;fill-rule:nonzero;stroke:none"
         id="path180" />
      <path
         d="m 2328.33,2298.42 -26.63,-9.75 26.63,-9.68 V 2269 l -38.07,14.47 v 10.4 l 38.07,14.47 v -9.92"
         style="fill:#ffffff;fill-opacity:1;fill-rule:nonzero;stroke:none"
         id="path182" />
      <path
         d="m 2356.98,2328.01 h 11.12 l -26.39,-75.32 h -11.11 l 26.38,75.32"
         style="fill:#ffffff;fill-opacity:1;fill-rule:nonzero;stroke:none"
         id="path184" />
      <path
         d="m 2407.63,2293.87 v -10.4 L 2369.57,2269 v 9.99 l 26.62,9.68 -26.62,9.75 v 9.92 l 38.06,-14.47"
         style="fill:#ffffff;fill-opacity:1;fill-rule:nonzero;stroke:none"
         id="path186" />
      <path
         d="m 2402.02,2184.15 h -108.8 c -5.52,0 -10,4.47 -10,10 0,5.52 4.48,10 10,10 h 108.8 c 5.52,0 10,-4.48 10,-10 0,-5.53 -4.48,-10 -10,-10"
         style="fill:#9a9e9f;fill-opacity:1;fill-rule:nonzero;stroke:none"
         id="path188" />
      <path
         d="m 2402.02,2118.87 h -108.8 c -5.52,0 -10,4.48 -10,10 0,5.52 4.48,10 10,10 h 108.8 c 5.52,0 10,-4.48 10,-10 0,-5.52 -4.48,-10 -10,-10"
         style="fill:#9a9e9f;fill-opacity:1;fill-rule:nonzero;stroke:none"
         id="path190" />
      <path
         d="m 2402.02,2053.6 h -108.8 c -5.52,0 -10,4.48 -10,10 0,5.52 4.48,10 10,10 h 108.8 c 5.52,0 10,-4.48 10,-10 0,-5.52 -4.48,-10 -10,-10"
         style="fill:#9a9e9f;fill-opacity:1;fill-rule:nonzero;stroke:none"
         id="path192" />
      <path
         d="m 2402.02,1988.32 h -108.8 c -5.52,0 -10,4.48 -10,10 0,5.52 4.48,10 10,10 h 108.8 c 5.52,0 10,-4.48 10,-10 0,-5.52 -4.48,-10 -10,-10"
         style="fill:#9a9e9f;fill-opacity:1;fill-rule:nonzero;stroke:none"
         id="path194" />
      <path
         d="m 2402.02,1923.05 h -108.8 c -5.52,0 -10,4.47 -10,10 0,5.53 4.48,10 10,10 h 108.8 c 5.52,0 10,-4.47 10,-10 0,-5.53 -4.48,-10 -10,-10"
         style="fill:#9a9e9f;fill-opacity:1;fill-rule:nonzero;stroke:none"
         id="path196" />
      <path
         d="m 2402.02,1857.77 h -108.8 c -5.52,0 -10,4.48 -10,10 0,5.53 4.48,10 10,10 h 108.8 c 5.52,0 10,-4.47 10,-10 0,-5.52 -4.48,-10 -10,-10"
         style="fill:#9a9e9f;fill-opacity:1;fill-rule:nonzero;stroke:none"
         id="path198" />
      <path
         d="m 2402.02,1792.5 h -108.8 c -5.52,0 -10,4.47 -10,10 0,5.53 4.48,10 10,10 h 108.8 c 5.52,0 10,-4.47 10,-10 0,-5.53 -4.48,-10 -10,-10"
         style="fill:#9a9e9f;fill-opacity:1;fill-rule:nonzero;stroke:none"
         id="path200" />
      <path
         d="m 2402.02,1727.23 h -108.8 c -5.52,0 -10,4.47 -10,10 0,5.53 4.48,10 10,10 h 108.8 c 5.52,0 10,-4.47 10,-10 0,-5.53 -4.48,-10 -10,-10"
         style="fill:#9a9e9f;fill-opacity:1;fill-rule:nonzero;stroke:none"
         id="path202" />
      <path
         d="m 2402.02,1661.95 h -108.8 c -5.52,0 -10,4.48 -10,10 0,5.53 4.48,10 10,10 h 108.8 c 5.52,0 10,-4.47 10,-10 0,-5.52 -4.48,-10 -10,-10"
         style="fill:#9a9e9f;fill-opacity:1;fill-rule:nonzero;stroke:none"
         id="path204" />
      <path
         d="m 2716.52,2184.15 h -223.17 c -5.52,0 -10,4.47 -10,10 0,5.52 4.48,10 10,10 h 223.17 c 5.52,0 10,-4.48 10,-10 0,-5.53 -4.48,-10 -10,-10"
         style="fill:#406fbf;fill-opacity:1;fill-rule:nonzero;stroke:none"
         id="path206" />
      <path
         d="m 3357.4,2184.15 h -581.54 c -5.52,0 -10,4.47 -10,10 0,5.52 4.48,10 10,10 h 581.54 c 5.53,0 10,-4.48 10,-10 0,-5.53 -4.47,-10 -10,-10"
         style="fill:#17282f;fill-opacity:1;fill-rule:nonzero;stroke:none"
         id="path208" />
      <path
         d="m 3622.78,2184.15 h -168.45 c -5.53,0 -10,4.47 -10,10 0,5.52 4.47,10 10,10 h 168.45 c 5.53,0 10,-4.48 10,-10 0,-5.53 -4.47,-10 -10,-10"
         style="fill:#b7bebe;fill-opacity:1;fill-rule:nonzero;stroke:none"
         id="path210" />
      <path
         d="m 3106.19,2118.87 h -582.82 c -5.52,0 -10,4.48 -10,10 0,5.52 4.48,10 10,10 h 582.82 c 5.53,0 10,-4.48 10,-10 0,-5.52 -4.47,-10 -10,-10"
         style="fill:#b7bebe;fill-opacity:1;fill-rule:nonzero;stroke:none"
         id="path212" />
      <path
         d="M 3702.83,2118.87 H 3159.6 c -5.52,0 -10,4.48 -10,10 0,5.53 4.48,10 10,10 h 543.23 c 5.53,0 10,-4.47 10,-10 0,-5.52 -4.47,-10 -10,-10"
         style="fill:#406fbf;fill-opacity:1;fill-rule:nonzero;stroke:none"
         id="path214" />
      <path
         d="m 2868.83,2053.6 h -345.46 c -5.52,0 -10,4.48 -10,10 0,5.52 4.48,10 10,10 h 345.46 c 5.52,0 10,-4.48 10,-10 0,-5.52 -4.48,-10 -10,-10"
         style="fill:#17282f;fill-opacity:1;fill-rule:nonzero;stroke:none"
         id="path216" />
      <path
         d="m 3280.26,2053.6 h -340.22 c -5.52,0 -10,4.48 -10,10 0,5.52 4.48,10 10,10 h 340.22 c 5.52,0 10,-4.48 10,-10 0,-5.52 -4.48,-10 -10,-10"
         style="fill:#406fbf;fill-opacity:1;fill-rule:nonzero;stroke:none"
         id="path218" />
      <path
         d="m 3702.83,2053.6 h -367.18 c -5.53,0 -10,4.48 -10,10 0,5.52 4.47,10 10,10 h 367.18 c 5.53,0 10,-4.48 10,-10 0,-5.52 -4.47,-10 -10,-10"
         style="fill:#17282f;fill-opacity:1;fill-rule:nonzero;stroke:none"
         id="path220" />
      <path
         d="m 2900.82,1988.32 h -207.34 c -5.53,0 -10,4.48 -10,10 0,5.52 4.47,10 10,10 h 207.34 c 5.53,0 10,-4.48 10,-10 0,-5.52 -4.47,-10 -10,-10"
         style="fill:#17282f;fill-opacity:1;fill-rule:nonzero;stroke:none"
         id="path222" />
      <path
         d="m 3194.38,1988.32 h -226.3 c -5.53,0 -10,4.48 -10,10 0,5.52 4.47,10 10,10 h 226.3 c 5.53,0 10,-4.48 10,-10 0,-5.52 -4.47,-10 -10,-10"
         style="fill:#17282f;fill-opacity:1;fill-rule:nonzero;stroke:none"
         id="path224" />
      <path
         d="m 3612.78,1988.32 h -366.96 c -5.53,0 -10,4.48 -10,10 0,5.52 4.47,10 10,10 h 366.96 c 5.52,0 10,-4.48 10,-10 0,-5.52 -4.48,-10 -10,-10"
         style="fill:#b7bebe;fill-opacity:1;fill-rule:nonzero;stroke:none"
         id="path226" />
      <path
         d="m 2802.27,1923.05 h -278.9 c -5.52,0 -10,4.47 -10,10 0,5.53 4.48,10 10,10 h 278.9 c 5.52,0 10,-4.47 10,-10 0,-5.53 -4.48,-10 -10,-10"
         style="fill:#b7bebe;fill-opacity:1;fill-rule:nonzero;stroke:none"
         id="path228" />
      <path
         d="m 2837.18,1857.77 h -313.81 c -5.52,0 -10,4.48 -10,10 0,5.53 4.48,10 10,10 h 313.81 c 5.52,0 10,-4.47 10,-10 0,-5.52 -4.48,-10 -10,-10"
         style="fill:#406fbf;fill-opacity:1;fill-rule:nonzero;stroke:none"
         id="path230" />
      <path
         d="m 3361.36,1857.77 h -472.75 c -5.52,0 -10,4.48 -10,10 0,5.53 4.48,10 10,10 h 472.75 c 5.52,0 10,-4.47 10,-10 0,-5.52 -4.48,-10 -10,-10"
         style="fill:#17282f;fill-opacity:1;fill-rule:nonzero;stroke:none"
         id="path232" />
      <path
         d="m 3702.83,1857.77 h -284.11 c -5.52,0 -10,4.48 -10,10 0,5.53 4.48,10 10,10 h 284.11 c 5.53,0 10,-4.47 10,-10 0,-5.52 -4.47,-10 -10,-10"
         style="fill:#17282f;fill-opacity:1;fill-rule:nonzero;stroke:none"
         id="path234" />
      <path
         d="m 2803.09,1792.5 h -179.66 c -5.52,0 -10,4.47 -10,10 0,5.53 4.48,10 10,10 h 179.66 c 5.52,0 10,-4.47 10,-10 0,-5.53 -4.48,-10 -10,-10"
         style="fill:#b7bebe;fill-opacity:1;fill-rule:nonzero;stroke:none"
         id="path236" />
      <path
         d="M 3209.05,1792.5 H 2864.4 c -5.52,0 -10,4.47 -10,10 0,5.53 4.48,10 10,10 h 344.65 c 5.52,0 10,-4.47 10,-10 0,-5.53 -4.48,-10 -10,-10"
         style="fill:#b7bebe;fill-opacity:1;fill-rule:nonzero;stroke:none"
         id="path238" />
      <path
         d="M 3612.78,1792.5 H 3276.3 c -5.52,0 -10,4.47 -10,10 0,5.53 4.48,10 10,10 h 336.48 c 5.52,0 10,-4.47 10,-10 0,-5.53 -4.48,-10 -10,-10"
         style="fill:#17282f;fill-opacity:1;fill-rule:nonzero;stroke:none"
         id="path240" />
      <path
         d="M 2935.26,1727.23 H 2723.5 c -5.53,0 -10,4.47 -10,10 0,5.53 4.47,10 10,10 h 211.76 c 5.53,0 10,-4.47 10,-10 0,-5.53 -4.47,-10 -10,-10"
         style="fill:#17282f;fill-opacity:1;fill-rule:nonzero;stroke:none"
         id="path242" />
      <path
         d="m 3180.54,1727.23 h -201.76 c -5.52,0 -10,4.47 -10,10 0,5.53 4.48,10 10,10 h 201.76 c 5.53,0 10,-4.47 10,-10 0,-5.53 -4.47,-10 -10,-10"
         style="fill:#b7bebe;fill-opacity:1;fill-rule:nonzero;stroke:none"
         id="path244" />
      <path
         d="m 3612.78,1727.23 h -368.94 c -5.52,0 -10,4.47 -10,10 0,5.53 4.48,10 10,10 h 368.94 c 5.52,0 10,-4.47 10,-10 0,-5.53 -4.48,-10 -10,-10"
         style="fill:#406fbf;fill-opacity:1;fill-rule:nonzero;stroke:none"
         id="path246" />
      <path
         d="M 2982.38,1661.95 H 2723.5 c -5.53,0 -10,4.48 -10,10 0,5.53 4.47,10 10,10 h 258.88 c 5.53,0 10,-4.47 10,-10 0,-5.52 -4.47,-10 -10,-10"
         style="fill:#b7bebe;fill-opacity:1;fill-rule:nonzero;stroke:none"
         id="path248" />
      <path
         d="m 3767.51,2413.01 c -9.47,0 -17.14,7.67 -17.14,17.14 0,9.47 7.67,17.15 17.14,17.15 9.47,0 17.14,-7.68 17.14,-17.15 0,-9.47 -7.67,-17.14 -17.14,-17.14"
         style="fill:#7da6dd;fill-opacity:1;fill-rule:nonzero;stroke:none"
         id="path250" />
      <path
         d="m 3707.47,2413.01 c -9.47,0 -17.14,7.67 -17.14,17.14 0,9.47 7.67,17.15 17.14,17.15 9.47,0 17.15,-7.68 17.15,-17.15 0,-9.47 -7.68,-17.14 -17.15,-17.14"
         style="fill:#7da6dd;fill-opacity:1;fill-rule:nonzero;stroke:none"
         id="path252" />
      <path
         d="m 3647.43,2413.01 c -9.46,0 -17.14,7.67 -17.14,17.14 0,9.47 7.68,17.15 17.14,17.15 9.47,0 17.15,-7.68 17.15,-17.15 0,-9.47 -7.68,-17.14 -17.15,-17.14"
         style="fill:#7da6dd;fill-opacity:1;fill-rule:nonzero;stroke:none"
         id="path254" />
      <path
         d="M 1132.63,2411.46 H 845.352 c -48.856,0 -88.461,-39.6 -88.461,-88.46 v -250.02 c 0,-48.85 39.605,-88.46 88.457,-88.46 h 203.682 l 60.04,-78.94 v 78.94 h 23.57 c 48.85,0 88.45,39.61 88.45,88.46 V 2323 c 0,48.86 -39.6,88.46 -88.46,88.46"
         style="fill:#406fbf;fill-opacity:1;fill-rule:nonzero;stroke:none"
         id="path256" />
      <path
         d="m 1109.07,1905.58 -60.04,78.94 H 845.348 c -48.852,0 -88.457,39.61 -88.457,88.46 V 2323 c 0,48.86 39.605,88.46 88.461,88.46 h 287.278 c 48.86,0 88.46,-39.6 88.46,-88.46 v -250.02 c 0,-48.85 -39.6,-88.46 -88.45,-88.46 h -23.57 v -78.94"
         style="fill:#b8d2ef;fill-opacity:1;fill-rule:nonzero;stroke:none"
         id="path258" />
      <path
         d="m 1131.57,2199.07 c 0,-78.75 -63.83,-142.58 -142.578,-142.58 -78.746,0 -142.582,63.83 -142.582,142.58 0,78.75 63.836,142.58 142.582,142.58 78.748,0 142.578,-63.83 142.578,-142.58"
         style="fill:#406fbf;fill-opacity:1;fill-rule:nonzero;stroke:none"
         id="path260" />
      <path
         d="m 974.027,2135.38 c -3.847,0 -7.5,1.69 -9.992,4.63 l -55.941,65.91 c -4.684,5.52 -4.004,13.78 1.511,18.47 5.508,4.67 13.782,4.01 18.469,-1.52 l 45.953,-54.14 75.883,89.41 c 4.69,5.52 12.96,6.19 18.47,1.51 5.51,-4.68 6.19,-12.95 1.51,-18.47 l -85.874,-101.17 c -2.489,-2.94 -6.141,-4.63 -9.989,-4.63"
         style="fill:#ffffff;fill-opacity:1;fill-rule:nonzero;stroke:none"
         id="path262" />
      <path
         d="m 2047.24,640.809 214.65,10.55 -20.87,-186.718 c 0,0 -149.01,-28.469 -215.47,77.558 l 21.69,98.61"
         style="fill:#f8a361;fill-opacity:1;fill-rule:nonzero;stroke:none"
         id="path264" />
      <path
         d="m 2400.32,586.27 -48.88,-135.461 -110.42,13.832 20.87,186.718 138.43,-65.089"
         style="fill:#f8a361;fill-opacity:1;fill-rule:nonzero;stroke:none"
         id="path266" />
      <path
         d="m 1841.1,337.781 c 128.25,64.578 220.75,163.957 220.75,163.957 l -14.61,139.071 c -202.92,-29.59 -319.9,-72.911 -319.9,-72.911 0,0 75.13,269.563 6.38,367.762 l -188.89,-34.238 c 0,0 -200.69,-417.184 -65.72,-563.641 h 361.99"
         style="fill:#406fbf;fill-opacity:1;fill-rule:nonzero;stroke:none"
         id="path268" />
      <path
         d="m 1727.34,567.898 c 0,0 59.52,213.524 24.13,329.723 h 0.05 c 34.56,-113.84 -21.7,-320.723 -23.94,-329.441 6.83,2.422 114.87,40.91 298.36,69.48 l -0.39,-0.058 v -0.051 c -189.54,-29.403 -298.21,-69.653 -298.21,-69.653 m 23.41,332.223 h -0.06 c -4.26,13.32 -9.82,25.301 -16.92,35.461 0,0.059 -0.01,0.117 -0.01,0.18 v 0 c 7.12,-10.203 12.71,-22.25 16.99,-35.641"
         style="fill:#ffffff;fill-opacity:1;fill-rule:nonzero;stroke:none"
         id="path270" />
      <path
         d="m 1751.52,897.621 h -0.05 c -0.25,0.828 -0.51,1.668 -0.78,2.5 h 0.06 c 0.26,-0.84 0.52,-1.66 0.77,-2.5"
         style="fill:#f9f9f8;fill-opacity:1;fill-rule:nonzero;stroke:none"
         id="path272" />
      <path
         d="m 1846.77,340.801 h -160.75 c 0,0.031 0.01,0.039 0.01,0.058 h 160.86 c -0.04,-0.019 -0.08,-0.039 -0.12,-0.058 m 108.64,68.328 h -259.37 c 21.89,161.051 23.8,269.41 19.14,340.133 13.12,92.527 20.87,164.898 18.59,186.32 7.1,-10.16 12.66,-22.141 16.92,-35.461 0.27,-0.832 0.53,-1.672 0.78,-2.5 35.39,-116.199 -24.13,-329.723 -24.13,-329.723 0,0 108.67,40.25 298.21,69.653 l 12.58,-159.27 c -18.47,-17.39 -46.96,-42.601 -82.72,-69.152"
         style="fill:#b8d2ef;fill-opacity:1;fill-rule:nonzero;stroke:none"
         id="path274" />
      <path
         d="m 1686.02,340.801 h -41.59 c 0,0.031 0.01,0.039 0.01,0.058 h 41.59 c 0,-0.019 -0.01,-0.027 -0.01,-0.058 m 10.02,68.328 h -37.87 c 1.65,8.519 3.31,17.191 4.95,25.891 19.63,103.878 38.65,219.601 52.06,314.242 4.66,-70.723 2.75,-179.082 -19.14,-340.133"
         style="fill:#8fa5cb;fill-opacity:1;fill-rule:nonzero;stroke:none"
         id="path276" />
      <path
         d="m 1643.79,337.781 c 44.97,213.649 95.48,548.078 89.93,597.879 -8.07,72.35 -401.86,382.58 -743.583,156.75 C 920.336,1046.28 884.414,549.039 872.211,337.781 h 771.579"
         style="fill:#406fbf;fill-opacity:1;fill-rule:nonzero;stroke:none"
         id="path278" />
      <path
         d="m 1733.71,935.75 c -1.42,12.289 -13.92,31.41 -35.36,53.582 l 0.07,0.039 c 21.48,-22.211 33.98,-41.34 35.34,-53.609 l -0.05,-0.012"
         style="fill:#ffffff;fill-opacity:1;fill-rule:nonzero;stroke:none"
         id="path280" />
      <path
         d="m 1698.35,989.332 c -10.87,11.248 -24.05,23.288 -39.25,35.618 0,0.02 0.01,0.05 0.01,0.07 15.23,-12.35 28.42,-24.39 39.31,-35.649 l -0.07,-0.039"
         style="fill:#fafaf9;fill-opacity:1;fill-rule:nonzero;stroke:none"
         id="path282" />
      <path
         d="m 1733.77,935.582 c -0.02,0.027 -0.03,0.047 -0.05,0.078 v 0 c -0.01,0.031 -0.01,0.059 -0.01,0.09 l 0.05,0.012 v 0 c 0,-0.063 0.01,-0.121 0.01,-0.18"
         style="fill:#ffffff;fill-opacity:1;fill-rule:nonzero;stroke:none"
         id="path284" />
      <path
         d="m 1715.18,749.262 c 0,0.008 0,0.019 0,0.027 13.14,92.75 20.89,165.231 18.54,186.371 v 0 c 0.02,-0.031 0.03,-0.051 0.05,-0.078 2.28,-21.422 -5.47,-93.793 -18.59,-186.32"
         style="fill:#e7f1fa;fill-opacity:1;fill-rule:nonzero;stroke:none"
         id="path286" />
      <path
         d="m 1663.12,435.02 c 19.63,103.902 38.65,219.628 52.06,314.269 0,-0.008 0,-0.019 0,-0.027 -13.41,-94.641 -32.43,-210.364 -52.06,-314.242"
         style="fill:#dbe2ee;fill-opacity:1;fill-rule:nonzero;stroke:none"
         id="path288" />
      <path
         d="M 1644.42,340.801 H 872.488 c 1.68,29.031 3.778,63.14 6.328,100.738 0.821,12 1.688,24.34 2.606,36.961 v 0 c -0.918,-12.621 -1.785,-24.961 -2.606,-36.961 6.739,-0.359 13.493,-0.527 20.278,-0.527 221.136,0 463.646,182.386 473.406,189.797 l 37.76,16.953 -2.07,29.07 c 37.5,-33.441 83.93,-42.602 123.6,-42.602 48.18,0 86.35,13.532 86.35,13.532 l -7.59,187.726 -91.73,-18.679 c -15.26,55.242 -11.67,92.191 -2.82,116.281 2.38,-2 3.48,-3.461 3.48,-3.461 0,0 124.82,24.332 139.62,95.321 15.2,-12.33 28.38,-24.37 39.25,-35.618 21.44,-22.172 33.94,-41.293 35.36,-53.582 0,-0.031 0,-0.059 0.01,-0.09 v 0 c 2.35,-21.14 -5.4,-93.621 -18.54,-186.371 -13.41,-94.641 -32.43,-210.367 -52.06,-314.269 -1.65,-8.719 -3.3,-17.348 -4.95,-25.891 h -90.38 v -41.75 0 c 0,-18.809 22.66,-26.52 41.48,-26.52 h 35.17 c -0.01,-0.019 -0.01,-0.027 -0.02,-0.058 m -244.46,451.808 h -42.01 v 0.051 c -24.62,3.582 -64.56,4.77 -106.9,4.77 -84.66,0 -178.84,-4.77 -178.84,-4.77 l 34.06,42.738 -0.1,0.082 0.02,0.008 c 16.84,46.883 23.24,88.102 23.24,123.684 0.01,112.518 -63.93,168.608 -63.93,168.608 v 0 c 235.17,-67.77 386.66,-187.6 386.66,-187.6 0.72,0.199 1.44,0.402 2.14,0.59 6.78,-26.239 14.19,-70.36 12.5,-134.551 l -66.84,-13.61 m 78.36,15.961 c 1.53,63.84 -5.74,107.828 -12.66,134.621 5.29,0.86 10.14,1.219 14.57,1.219 10.81,0 19.11,-2.191 25.24,-4.89 -10.16,-25.95 -14.41,-65.641 2.04,-125.008 l -29.19,-5.942"
         style="fill:#b8d2ef;fill-opacity:1;fill-rule:nonzero;stroke:none"
         id="path290" />
      <path
         d="m 1475.14,2010.15 c -118.52,47.9 -397.92,-124.03 -422.41,-430.54 -24.48,-306.51 130.92,-221.55 130.92,-221.55 0,0 27.64,-116.96 140.83,-80.84 0,0 93.5,-105.91 180.55,-62.82 0,0 108.25,-112.8 166.37,-53.25 0,0 63.24,-72.18 120.94,-17.51 57.7,54.68 222.52,612.02 -36.16,740.88 -258.69,128.87 -281.04,125.63 -281.04,125.63"
         style="fill:#17282f;fill-opacity:1;fill-rule:nonzero;stroke:none"
         id="path292" />
      <path
         d="M 1475.3,755.988 1463.91,757 c 13.14,147.57 -19.32,212.91 -19.65,213.559 l 10.15,5.242 c 1.41,-2.719 34.36,-68.422 20.89,-219.813"
         style="fill:#17282f;fill-opacity:1;fill-rule:nonzero;stroke:none"
         id="path294" />
      <path
         d="m 1528.87,754.27 c -78.42,184.968 9.79,228.011 13.58,229.742 l 4.77,-10.391 -2.39,5.199 2.42,-5.191 c -0.83,-0.379 -81.61,-40.93 -7.85,-214.91 l -10.53,-4.449"
         style="fill:#17282f;fill-opacity:1;fill-rule:nonzero;stroke:none"
         id="path296" />
      <path
         d="m 1452.16,940.18 c 0,0 -151.49,119.83 -386.66,187.6 l -75.363,-35.37 c 0,0 -126.606,156.75 84.403,208 211.01,51.24 498.01,-89.7 570.13,-211.01 72.12,-121.318 -125.19,-159.771 -125.19,-159.771 0,0 -18.41,24.351 -67.32,10.551"
         style="fill:#406fbf;fill-opacity:1;fill-rule:nonzero;stroke:none"
         id="path298" />
      <path
         d="m 1519.48,929.629 c 0,0 -1.1,1.461 -3.48,3.461 -2.28,1.91 -5.74,4.332 -10.53,6.43 -6.13,2.699 -14.43,4.89 -25.24,4.89 -4.43,0 -9.28,-0.359 -14.57,-1.219 -3.58,-0.57 -7.36,-1.371 -11.36,-2.421 -0.7,-0.188 -1.42,-0.391 -2.14,-0.59 0,0 -151.49,119.83 -386.66,187.6 v 0 c 0,0 -36.55,-4.06 -79.809,-29.37 -9.964,14.16 -33.218,51.49 -33.222,91.34 -0.008,42.26 26.148,87.36 122.071,110.66 30.56,7.42 62.75,10.81 95.62,10.81 52.23,0 106.23,-8.55 158.5,-23.08 -19.97,-56.51 -47.88,-103.99 -86.39,-122.52 0,0 97.65,-19.88 249.84,-213.151 86.69,60.861 53.91,102.301 53.91,102.301 -77.48,50.8 -80.43,110.66 -59.21,167.78 0.01,-0.01 0.02,-0.01 0.03,-0.02 0.12,0.34 0.24,0.68 0.37,1.02 72.62,-39.96 130.29,-88.45 157.46,-134.15 11.13,-18.72 15.84,-35.47 15.86,-50.4 0.07,-81.871 -141.05,-109.371 -141.05,-109.371"
         style="fill:#a4c3e9;fill-opacity:1;fill-rule:nonzero;stroke:none"
         id="path300" />
      <path
         d="m 1543.59,756.492 c 0,-5.512 -4.47,-9.98 -9.98,-9.98 -5.52,0 -9.99,4.468 -9.99,9.98 0,5.52 4.47,9.988 9.99,9.988 5.51,0 9.98,-4.468 9.98,-9.988"
         style="fill:#ffffff;fill-opacity:1;fill-rule:nonzero;stroke:none"
         id="path302" />
      <path
         d="m 1478.66,756.492 c 0,-5.512 -4.47,-9.98 -9.99,-9.98 -5.51,0 -9.98,4.468 -9.98,9.98 0,5.52 4.47,9.988 9.98,9.988 5.52,0 9.99,-4.468 9.99,-9.988"
         style="fill:#ffffff;fill-opacity:1;fill-rule:nonzero;stroke:none"
         id="path304" />
      <path
         d="m 1371.69,1505.95 c -9.22,-107.38 -42.1,-298.3 -129.42,-340.33 0,0 97.65,-19.88 249.84,-213.151 86.69,60.861 53.91,102.301 53.91,102.301 -101.43,66.5 -75.14,148.53 -34.1,219.61 l -140.23,231.57"
         style="fill:#f8a361;fill-opacity:1;fill-rule:nonzero;stroke:none"
         id="path306" />
      <path
         d="m 1487.21,1223.55 c -0.02,0 -0.02,0 -0.03,0.01 0.37,0.96 0.73,1.92 1.11,2.88 -0.37,-0.96 -0.73,-1.93 -1.08,-2.89"
         style="fill:#111d23;fill-opacity:1;fill-rule:nonzero;stroke:none"
         id="path308" />
      <path
         d="m 1486.84,1222.53 c -0.01,0.01 -0.02,0.01 -0.03,0.02 0.12,0.33 0.25,0.67 0.37,1.01 0.01,-0.01 0.01,-0.01 0.03,-0.01 -0.13,-0.34 -0.25,-0.68 -0.37,-1.02"
         style="fill:#7f9bcf;fill-opacity:1;fill-rule:nonzero;stroke:none"
         id="path310" />
      <path
         d="m 1511.85,1274.49 -13.5,22.3 13.51,-22.3 h -0.01"
         style="fill:#111d23;fill-opacity:1;fill-rule:nonzero;stroke:none"
         id="path312" />
      <path
         d="m 1486.81,1222.55 c -39.88,21.39 -83.78,89.18 -75.54,135.56 4.1,23.14 11.09,44.27 17.57,53.38 l 69.51,-114.7 13.5,-22.3 c -9.05,-15.56 -17.3,-31.66 -23.56,-48.05 -0.38,-0.96 -0.74,-1.92 -1.11,-2.88 v 0 c -0.12,-0.34 -0.25,-0.68 -0.37,-1.01"
         style="fill:#c4824e;fill-opacity:1;fill-rule:nonzero;stroke:none"
         id="path314" />
      <path
         d="m 1359.81,1732.56 c -27.93,-168.62 -43.26,-239.23 19.17,-347.78 93.9,-163.28 301.98,-170.95 378.47,-16.56 68.86,138.97 102.97,391.39 -40.63,502.83 -141.48,109.8 -329.08,30.14 -357.01,-138.49"
         style="fill:#f8a361;fill-opacity:1;fill-rule:nonzero;stroke:none"
         id="path316" />
      <path
         d="m 1705.33,1964.96 c 109.25,-60.67 213.34,-250.09 57.84,-202.74 -23.44,-45.47 -107.19,-3.84 -155.84,50.8 -8.19,-37.85 -97.88,-75.88 -163.84,-17.2 31.88,-46.01 -22.36,-162.13 -78.92,-142.1 -56.55,20.03 -183.32,46.31 -70.92,225.31 112.39,179 294.94,150.75 411.68,85.93"
         style="fill:#17282f;fill-opacity:1;fill-rule:nonzero;stroke:none"
         id="path318" />
      <path
         d="m 1665.52,1573.42 c 0,0 10.06,-66.95 29.01,-103.25 -21.38,-12.29 -49.86,4.18 -49.86,4.18 l 20.85,99.07"
         style="fill:#ef7937;fill-opacity:1;fill-rule:nonzero;stroke:none"
         id="path320" />
      <path
         d="m 1556.51,1444.32 c 6.69,-3.27 14.04,-6.13 22.1,-8.42 2.17,-0.62 4.33,0.73 4.81,3.02 0.48,2.26 -0.85,4.58 -3.08,5.24 -58.91,16.66 -77.41,67.59 -77.59,68.1 -0.78,2.26 -3.12,3.49 -5.2,2.76 -2.09,-0.73 -3.15,-3.14 -2.36,-5.38 0.7,-1.98 15.57,-43 61.32,-65.32"
         style="fill:#17282f;fill-opacity:1;fill-rule:nonzero;stroke:none"
         id="path322" />
      <path
         d="m 1274.92,1611.36 c 10.64,-38.86 36.7,-68.33 63.79,-83.17 40.73,-22.32 70.47,15.91 67,63.47 -3.12,42.81 -28.08,106.02 -72.75,108.52 -44,2.47 -70.19,-44.4 -58.04,-88.82"
         style="fill:#f8a361;fill-opacity:1;fill-rule:nonzero;stroke:none"
         id="path324" />
      <path
         d="m 1545.05,1727.95 c 2.03,-0.79 4.32,-0.73 6.34,0.35 31.51,16.86 57.92,1.15 58.23,0.97 3.91,-2.34 8.82,-1.06 10.92,3.01 2.08,4.06 0.58,9.29 -3.37,11.71 -1.38,0.83 -34.51,20.59 -73.62,-0.35 -3.89,-2.09 -5.3,-7.22 -3.14,-11.46 1.05,-2.04 2.73,-3.5 4.64,-4.23"
         style="fill:#17282f;fill-opacity:1;fill-rule:nonzero;stroke:none"
         id="path326" />
      <path
         d="m 1813.75,1662.13 c 1.82,-0.99 3.95,-1.28 6,-0.64 4.22,1.32 6.47,6.06 5.03,10.59 -14.48,45.42 -50.52,57.37 -52.06,57.85 -4.33,1.37 -8.72,-1.17 -9.81,-5.69 -1.1,-4.5 1.52,-9.27 5.83,-10.66 1.42,-0.45 29.25,-10.14 40.75,-46.25 0.75,-2.34 2.33,-4.17 4.26,-5.2"
         style="fill:#17282f;fill-opacity:1;fill-rule:nonzero;stroke:none"
         id="path328" />
      <path
         d="m 1598.75,1617.59 c -4.9,-13.33 -16.07,-21.47 -24.95,-18.21 -8.88,3.27 -12.11,16.71 -7.21,30.03 4.9,13.32 16.07,21.48 24.95,18.21 8.88,-3.27 12.11,-16.71 7.21,-30.03"
         style="fill:#17282f;fill-opacity:1;fill-rule:nonzero;stroke:none"
         id="path330" />
      <path
         d="m 1587.6,1648.34 33.15,0.71 c 0,0 -23.39,-19.08 -33.15,-0.71"
         style="fill:#17282f;fill-opacity:1;fill-rule:nonzero;stroke:none"
         id="path332" />
      <path
         d="m 1766.71,1564.36 c -4.9,-13.32 -16.07,-21.47 -24.95,-18.2 -8.88,3.26 -12.11,16.71 -7.21,30.03 4.9,13.32 16.07,21.47 24.95,18.21 8.88,-3.27 12.11,-16.72 7.21,-30.04"
         style="fill:#17282f;fill-opacity:1;fill-rule:nonzero;stroke:none"
         id="path334" />
      <path
         d="m 1755.56,1595.11 33.15,0.71 c 0,0 -23.39,-19.07 -33.15,-0.71"
         style="fill:#17282f;fill-opacity:1;fill-rule:nonzero;stroke:none"
         id="path336" />
      <path
         d="m 1598.71,1692.65 c -9.7,0 -19.6,-2.23 -29.19,-6.66 -18.41,-8.53 -33.44,-24.13 -42.29,-43.97 -8.87,-19.82 -10.48,-41.42 -4.55,-60.83 5.85,-19.12 18.36,-33.8 35.22,-41.34 16.85,-7.54 36.13,-7.07 54.28,1.33 18.41,8.53 33.44,24.13 42.3,43.97 l 5.22,-2.34 -5.22,2.34 c 8.86,19.82 10.48,41.42 4.54,60.83 -5.85,19.12 -18.35,33.8 -35.21,41.34 -7.95,3.55 -16.45,5.33 -25.1,5.33 z M 1583,1523.09 c -10.24,0 -20.31,2.11 -29.77,6.33 -19.92,8.9 -34.65,26.1 -41.48,48.42 -6.74,22.05 -4.95,46.5 5.04,68.85 9.99,22.34 27.01,39.99 47.94,49.67 21.19,9.8 43.83,10.29 63.75,1.38 19.91,-8.89 34.65,-26.09 41.47,-48.42 6.74,-22.04 4.95,-46.5 -5.03,-68.84 h -0.01 c -9.99,-22.34 -27.01,-39.99 -47.93,-49.67 -11.13,-5.15 -22.66,-7.72 -33.98,-7.72"
         style="fill:#17282f;fill-opacity:1;fill-rule:nonzero;stroke:none"
         id="path338" />
      <path
         d="m 1765.29,1641.64 c -9.7,0 -19.6,-2.23 -29.19,-6.66 -18.41,-8.52 -33.43,-24.13 -42.3,-43.95 -8.86,-19.83 -10.47,-41.44 -4.54,-60.84 5.85,-19.12 18.36,-33.8 35.22,-41.34 35.06,-15.7 78.4,4.65 96.58,45.29 8.86,19.83 10.47,41.43 4.54,60.83 -5.85,19.12 -18.35,33.8 -35.21,41.34 -7.95,3.55 -16.44,5.33 -25.1,5.33 z m -15.86,-169.5 c -10.05,0 -20.08,2.01 -29.62,6.28 -19.92,8.9 -34.65,26.1 -41.48,48.43 -6.74,22.05 -4.95,46.49 5.04,68.84 9.99,22.35 27.02,39.98 47.93,49.66 21.2,9.81 43.84,10.3 63.75,1.39 19.92,-8.9 34.65,-26.09 41.48,-48.42 6.74,-22.05 4.95,-46.49 -5.03,-68.85 h -0.01 c -15.89,-35.56 -49.05,-57.33 -82.06,-57.33"
         style="fill:#17282f;fill-opacity:1;fill-rule:nonzero;stroke:none"
         id="path340" />
      <path
         d="m 1678.05,1576.39 c -0.86,2.16 -2.03,2.84 -2.96,3.2 -4.05,1.57 -10.83,-0.91 -12.88,-1.91 l -5.04,10.26 c 1.26,0.63 12.59,5.94 22.01,2.32 4.37,-1.69 7.66,-5.02 9.49,-9.65 l -10.62,-4.22"
         style="fill:#17282f;fill-opacity:1;fill-rule:nonzero;stroke:none"
         id="path342" />
      <path
         d="m 1517.78,1633.24 -134.63,41.76 3.39,10.92 134.63,-41.76 -3.39,-10.92"
         style="fill:#17282f;fill-opacity:1;fill-rule:nonzero;stroke:none"
         id="path344" />
      <path
         d="m 899.094,441.012 c -6.785,0 -13.539,0.168 -20.278,0.527 0.821,12 1.688,24.34 2.606,36.961 165.048,4.719 385.328,81.289 476.478,145.762 v 0 0 l -22.41,168.347 -331.53,-24.339 102.21,67.21 0.1,-0.082 -34.06,-42.738 c 0,0 94.18,4.77 178.84,4.77 42.34,0 82.28,-1.188 106.9,-4.77 v -0.051 h -22.46 l 22.41,-168.347 14.6,6.547 c -9.76,-7.411 -252.27,-189.797 -473.406,-189.797"
         style="fill:#8fa5cb;fill-opacity:1;fill-rule:nonzero;stroke:none"
         id="path346" />
      <path
         d="m 1399.96,792.609 210.59,42.879 7.59,-187.726 c 0,0 -142.99,-50.66 -224.72,44.097 l 6.54,100.75"
         style="fill:#f8a361;fill-opacity:1;fill-rule:nonzero;stroke:none"
         id="path348" />
      <path
         d="m 1757.23,792.07 -27.84,-141.289 -111.25,-3.019 -7.59,187.726 146.68,-43.418"
         style="fill:#f8a361;fill-opacity:1;fill-rule:nonzero;stroke:none"
         id="path350" />
      <path
         d="m 1399.96,792.609 10.3,-144.847 -52.36,-23.5 -22.41,168.347 h 64.47"
         style="fill:#406fbf;fill-opacity:1;fill-rule:nonzero;stroke:none"
         id="path352" />
      <path
         d="m 1357.9,624.262 -22.41,168.347 h 64.47 l 10.3,-144.847 -52.36,-23.5"
         style="fill:#a4c3e9;fill-opacity:1;fill-rule:nonzero;stroke:none"
         id="path354" />
      <path
         d="m 1065.5,1127.78 c 0,0 -80.937,-8.99 -144.469,-83.6 C 857.5,969.57 633.68,748.012 683.418,567.148 733.156,386.281 1211.69,520.852 1357.9,624.262 l -22.41,168.347 -331.53,-24.339 102.23,67.218 c 70.09,195.132 -40.69,292.292 -40.69,292.292"
         style="fill:#406fbf;fill-opacity:1;fill-rule:nonzero;stroke:none"
         id="path356" />
      <path
         d="m 865.645,478.281 c -92.243,0 -164.493,24.391 -182.227,88.867 -4.902,17.844 -7.148,36.071 -7.148,54.524 0.003,168.617 187.496,355.258 244.761,422.508 63.532,74.61 144.469,83.6 144.469,83.6 0,0 63.94,-56.09 63.93,-168.608 0,-35.582 -6.4,-76.801 -23.24,-123.684 l -102.23,-67.218 331.53,24.339 22.41,-168.347 C 1266.75,559.789 1046.47,483.219 881.422,478.5 v 0 h -0.027 c -5.317,-0.148 -10.555,-0.219 -15.75,-0.219"
         style="fill:#b8d2ef;fill-opacity:1;fill-rule:nonzero;stroke:none"
         id="path358" />
      <path
         d="m 2025.55,637.602 60.33,10.16 V 486.09 l -47.75,-7.809 -12.58,159.321"
         style="fill:#406fbf;fill-opacity:1;fill-rule:nonzero;stroke:none"
         id="path360" />
      <path
         d="m 2038.13,478.281 v 0 l -12.58,159.27 v 0.051 l 60.33,10.16 V 642.711 486.09 h -0.02 l -47.73,-7.809"
         style="fill:#a4c3e9;fill-opacity:1;fill-rule:nonzero;stroke:none"
         id="path362" />
      <path
         d="m 1903.74,487.672 c -0.12,8.848 0.17,17.969 1.3,26.5 l 1.77,13.328 -12.91,-7.609 -7.69,-4.539 c -2.65,-0.942 -5.21,-2.391 -7.79,-2.973 -5.15,-1.598 -9.88,-1.598 -14.01,-0.297 -4.12,1.359 -7.84,4.246 -11.24,8.137 -3.24,3.793 -6.32,9.203 -7.9,13.621 l -11.28,31.531 -7.97,-33.34 c -0.8,-3.312 -1.32,-6.672 -1.96,-10.019 -0.78,-3.231 -1.94,-6.172 -2.83,-9.313 -2.62,-5.461 -5.56,-10.289 -9.33,-12.66 -3.71,-2.48 -9.03,-2.641 -15.09,-1.34 -5.96,1.281 -12.45,4.481 -17.85,7.852 l -17.38,10.828 7.06,-17.66 c 2.93,-7.321 5.34,-15.34 7.17,-23.219 0.81,-3.98 1.46,-7.98 1.62,-12.02 0.04,-3.98 -0.13,-8.199 -2.62,-11.761 3.57,2.511 5.73,6.941 6.79,11.222 1.15,4.329 1.71,8.801 1.8,13.207 0.11,3.532 -0.11,7 -0.36,10.473 2.82,-1.601 5.76,-3.082 8.97,-4.359 8.01,-3.203 18.85,-4.172 28.47,0.617 9.65,4.801 14.87,13.371 18.68,21.23 l 0.46,1.313 c 5.11,-5.461 12,-10.18 20.09,-11.973 8.5,-1.89 17.41,-0.769 24.41,2.492 3.1,1.25 5.74,3 8.47,4.618 l 0.14,-1.118 c 0.63,-4.711 1.62,-9.39 2.91,-14 1.21,-4.609 2.78,-9.191 4.99,-13.492 2.1,-4.289 4.93,-8.437 8.69,-11.258 -2.56,3.93 -3.52,8.387 -4.37,12.719 -0.72,4.379 -1.1,8.809 -1.21,13.262"
         style="fill:#406fbf;fill-opacity:1;fill-rule:nonzero;stroke:none"
         id="path364" />
      <path
         d="m 2261.4,713.332 c -6.57,-0.934 -15.51,0.09 -23.07,2.449 -7.6,2.438 -15.76,6.188 -21.78,10.481 -6.25,4.519 -11.68,10.449 -16.06,17.258 -4.45,6.558 -8.38,14.5 -10.7,21.492 l -6.55,19.789 -11.23,-17.672 c -4.52,-7.117 -10.88,-14.367 -17.19,-19.918 -6.44,-5.621 -13.69,-9.313 -20.11,-9.152 l -2.42,0.14 c -0.92,0.121 -2.02,0.403 -3.02,0.59 -2.06,0.34 -4.11,1 -6.17,1.57 -4.09,1.289 -8.12,3.102 -12.06,5.18 -7.74,4.152 -15.43,10.07 -21.56,15.961 l -17.39,16.699 3.57,-22.879 c 1.88,-12.011 3.01,-24.871 2.38,-36.961 -0.44,-6.007 -1.3,-12.07 -3.51,-17.007 -2.19,-5.051 -6.29,-7.481 -12.18,-7.02 l -4.56,0.348 1.41,-3.692 c 2.87,-7.519 5.91,-14.976 9.04,-22.418 -0.98,6.66 -2.08,13.301 -3.23,19.93 l 1.84,-0.289 c 1.92,-0.02 3.96,0.629 5.97,1.051 1.83,0.808 3.56,2.019 5.29,3.16 1.31,1.406 2.66,2.879 3.92,4.41 4.35,6.348 6.04,13.258 7.47,19.988 1.34,6.782 2.01,13.52 2.23,20.25 v 0.321 c 3.28,-2.602 6.67,-5.059 10.32,-7.34 4.66,-2.821 9.56,-5.379 14.81,-7.371 5.53,-1.891 10.16,-3.629 17.32,-3.91 13.65,-0.372 24.95,6.242 33.44,13.261 4.07,3.391 7.61,7 10.87,10.828 1.94,-3.488 4.04,-6.879 6.46,-10.211 5.86,-8.039 13.18,-15.316 21.91,-20.886 9.03,-5.711 17.97,-8.563 27.75,-10.813 6.32,-1.148 12.54,-1.828 19.06,-1.398 -0.77,-2.051 -1.67,-4.063 -2.36,-6.141 -1.74,-5.789 -3.23,-11.648 -4.13,-17.64 -1.05,-5.938 -1.25,-12.079 -0.77,-18.09 0.49,-5.969 1.97,-12.09 5.27,-16.989 -2.09,5.5 -1.77,11.379 -1.25,16.957 0.66,5.614 2.05,11.094 3.85,16.434 3.57,10.68 8.79,20.77 14.51,30.5 l 6.3,10.688 -13.69,-1.938"
         style="fill:#406fbf;fill-opacity:1;fill-rule:nonzero;stroke:none"
         id="path366" />
      <path
         d="M 754.984,122.379 H 4262.02 c 24.52,0 44.41,19.883 44.41,44.41 V 274.801 H 710.574 V 166.789 c 0,-24.527 19.883,-44.41 44.41,-44.41"
         style="fill:#406fbf;fill-opacity:1;fill-rule:nonzero;stroke:none"
         id="path368" />
      <path
         d="m 710.574,198.59 h 3595.86 v 56.3398 H 710.574 Z"
         style="fill:#3563b7;fill-opacity:1;fill-rule:nonzero;stroke:none"
         id="path370" />
      <path
         d="M 635.168,254.93 H 4381.83 c 23.71,0 42.94,19.218 42.94,42.941 0,23.711 -19.23,42.93 -42.94,42.93 H 635.168 c -23.711,0 -42.938,-19.219 -42.938,-42.93 0,-23.723 19.227,-42.941 42.938,-42.941"
         style="fill:#406fbf;fill-opacity:1;fill-rule:nonzero;stroke:none"
         id="path372" />
      <path
         d="m 4127.86,865.219 -109.38,-496.16 c -3.56,-16.34 -19.47,-28.2 -35.52,-28.2 h -597.53 c -15.91,0 -26.14,14.84 -22.45,31.172 l 109.25,492.379 c 3.7,16.199 19.47,24.27 35.52,24.27 h 597.53 c 16.05,0 26.13,-7.258 22.58,-23.461"
         style="fill:#17282f;fill-opacity:1;fill-rule:nonzero;stroke:none"
         id="path374" />
      <path
         d="m 3982.96,340.859 h -577.21 c -0.09,0 -0.17,0 -0.25,0 h 100.84 476.89 c -0.09,0 -0.18,0 -0.27,0 m -579.45,0.102 c -14.74,1.309 -23.74,15.508 -20.35,31.07 l 109.39,492.379 c 3.55,16.199 19.46,24.27 35.52,24.27 h 577.21 c 13.4,0 22.64,-5.059 23.26,-16.16 -2.88,0.73 -6.14,1.089 -9.69,1.089 h -577.22 c -15.36,0 -30.58,-7.39 -34.98,-22.199 -0.21,-0.68 -0.39,-1.371 -0.55,-2.07 l -21.41,-96.809 -88.2,-398.609 c -0.54,-1.172 -0.85,-2.481 -0.85,-3.863 v 0 0 0 0 c 0,-4.598 3.43,-8.45 7.87,-9.098"
         style="fill:#6c7a7f;fill-opacity:1;fill-rule:nonzero;stroke:none"
         id="path376" />
      <path
         d="m 4032.59,356.48 108.84,493.668 c 3.55,16.192 -6.53,23.461 -22.58,23.461 h -577.22 c -16.05,0 -31.96,-8.078 -35.52,-24.269 l -110.47,-499.281 636.95,6.421"
         style="fill:#406fbf;fill-opacity:1;fill-rule:nonzero;stroke:none"
         id="path378" />
      <path
         d="m 4083.98,589.43 h -0.03 l 14.57,66.082 -14.54,-66.082 m 57.23,272.761 c -0.66,1.918 -1.67,3.579 -2.97,5 1.31,-1.421 2.31,-3.082 2.97,-5"
         style="fill:#ffffff;fill-opacity:1;fill-rule:nonzero;stroke:none"
         id="path380" />
      <path
         d="m 3484.69,752.531 21.41,96.809 c 0.16,0.699 0.34,1.39 0.55,2.07 -0.2,-0.68 -0.38,-1.371 -0.54,-2.07 l -21.42,-96.809"
         style="fill:#a4adaf;fill-opacity:1;fill-rule:nonzero;stroke:none"
         id="path382" />
      <path
         d="m 3396.58,354.102 88.11,398.429 21.42,96.809 c 0.16,0.699 0.34,1.39 0.54,2.07 4.48,14.84 19.58,22.16 34.88,22.16 h 577.43 c 8.48,0 15.29,-2.058 19.28,-6.379 1.3,-1.421 2.31,-3.082 2.97,-5 1.11,-3.242 1.23,-7.211 0.15,-11.941 l -42.84,-194.738 -14.57,-66.082 h -600.32 c -13.97,0 -26.06,-9.739 -29.03,-23.399 L 3409.61,359.27 h -4.77 c -3.62,0 -6.76,-2.122 -8.26,-5.168"
         style="fill:#7da6dd;fill-opacity:1;fill-rule:nonzero;stroke:none"
         id="path384" />
      <path
         d="m 4080.83,575.141 c -0.01,0 -0.02,0.007 -0.03,0.007 l 3.15,14.282 h 0.03 l -3.15,-14.289"
         style="fill:#c3c4c2;fill-opacity:1;fill-rule:nonzero;stroke:none"
         id="path386" />
      <path
         d="m 3502.29,359.27 h -92.68 l 44.99,206.761 c 2.97,13.66 15.06,23.399 29.03,23.399 h 600.32 l -3.15,-14.282 c -6.43,4.071 -14.44,6.094 -22.49,6.094 H 3481.1 c -13.86,0 -23.27,-5.41 -23.29,-17.312 -0.01,-1.879 0.22,-3.93 0.71,-6.149 l 43.77,-198.511"
         style="fill:#6189ce;fill-opacity:1;fill-rule:nonzero;stroke:none"
         id="path388" />
      <path
         d="m 4093.83,556.969 c -3.55,16.203 -19.46,24.273 -35.52,24.273 H 3481.1 c -16.05,0 -26.14,-7.262 -22.58,-23.461 l 43.77,-198.511 h -97.45 c -5.06,0 -9.2,-4.141 -9.2,-9.211 0,-5.059 4.14,-9.2 9.2,-9.2 h 101.5 592.53 16.93 c 13.37,0 23.29,12.379 20.4,25.43 l -42.37,190.68"
         style="fill:#406fbf;fill-opacity:1;fill-rule:nonzero;stroke:none"
         id="path390" />
      <path
         d="m 4115.8,340.859 h -710.96 c -5.06,0 -9.2,4.141 -9.2,9.2 0,5.07 4.14,9.211 9.2,9.211 h 97.45 l -43.77,198.511 c -0.49,2.219 -0.72,4.27 -0.71,6.149 0.02,11.902 9.43,17.312 23.29,17.312 h 577.21 c 16.06,0 31.97,-8.07 35.52,-24.273 l 42.37,-190.68 c 0.34,-1.527 0.5,-3.051 0.5,-4.539 0.02,-11.238 -9.1,-20.891 -20.9,-20.891"
         style="fill:#7da6dd;fill-opacity:1;fill-rule:nonzero;stroke:none"
         id="path392" />
      <path
         d="m 3387.52,436.52 h -33.54 l -4.14,-18.079 h 32.61 l 5.07,18.079"
         style="fill:#040606;fill-opacity:1;fill-rule:nonzero;stroke:none"
         id="path394" />
      <path
         d="m 3175.79,338.5 h -96.5 c -3.15,0 -5.71,2.559 -5.71,5.711 0,3.148 2.56,5.711 5.71,5.711 h 96.5 c 32.24,0 62.33,14.41 82.55,39.519 22.4,27.829 55.74,43.778 91.46,43.778 h 16.99 c 3.16,0 5.72,-2.547 5.72,-5.707 0,-3.153 -2.56,-5.711 -5.72,-5.711 h -16.99 c -32.24,0 -62.33,-14.41 -82.55,-39.52 -22.4,-27.832 -55.74,-43.781 -91.46,-43.781"
         style="fill:#040606;fill-opacity:1;fill-rule:nonzero;stroke:none"
         id="path396" />
      <path
         d="m 1567.79,409.129 v -41.75 c 0,-18.809 22.66,-26.52 41.48,-26.52 h 1465.82 c 18.58,0 40.75,7.711 40.75,26.52 v 41.75 H 1567.79"
         style="fill:#17282f;fill-opacity:1;fill-rule:nonzero;stroke:none"
         id="path398" />
      <path
         d="m 2108.3,340.859 h -499.03 c -18.82,0 -41.48,7.711 -41.48,26.52 v 41.75 h 572.13 v 0 h -72.76 v -41.75 c 0,-18.809 22.33,-26.52 41.14,-26.52"
         style="fill:#6c7a7f;fill-opacity:1;fill-rule:nonzero;stroke:none"
         id="path400" />
      <path
         d="M 3075.09,340.859 H 2108.3 c -18.81,0 -41.14,7.711 -41.14,26.52 v 41.75 h 72.76 c -2.11,-23.399 13.54,-43.297 36.82,-43.297 h 32.41 v 0 h 906.63 c -1.18,-17.684 -22.62,-24.973 -40.69,-24.973"
         style="fill:#535f64;fill-opacity:1;fill-rule:nonzero;stroke:none"
         id="path402" />
      <path
         d="m 3361.09,1202.31 -174.5,-791.501 c -5.66,-26.059 -31.05,-44.977 -56.66,-44.977 h -953.19 c -25.38,0 -41.7,23.656 -35.81,49.727 l 174.28,785.451 c 5.89,25.84 31.05,38.72 56.65,38.72 h 953.2 c 25.61,0 41.7,-11.59 36.03,-37.42"
         style="fill:#17282f;fill-opacity:1;fill-rule:nonzero;stroke:none"
         id="path404" />
      <path
         d="m 3129.93,365.832 h -920.78 c -25.61,0 -41.7,23.656 -36.04,49.727 l 174.51,785.451 c 5.67,25.84 31.05,38.72 56.66,38.72 h 920.78 c 22.16,0 37.19,-8.68 37.17,-27.75 0,-2.97 -0.37,-6.19 -1.14,-9.67 l -40.53,-183.87 -3.15,-14.29 -13.23,-60.002 -26.96,-122.257 -81.63,-370.262 -0.55,-2.5 -8.45,-38.32 c -5.66,-26.059 -31.05,-44.977 -56.66,-44.977 m -314.07,556.559 c -52.12,-2.039 -105.11,-56.2 -120.3,-122.61 -15.18,-67.761 16.38,-122.832 69.64,-122.832 53.26,0 125.92,55.071 125.92,122.832 v 0.231 c 0,-0.231 -3.75,-0.231 -4.88,-0.231 -53.03,0 -85.56,54.848 -70.38,122.61"
         style="fill:#6c7a7f;fill-opacity:1;fill-rule:nonzero;stroke:none"
         id="path406" />
      <path
         d="m 2765.2,676.949 c -53.26,0 -84.82,55.071 -69.64,122.832 15.19,66.41 68.18,120.571 120.3,122.61 -15.18,-67.762 17.35,-122.61 70.38,-122.61 1.13,0 4.88,0 4.88,0.231 v -0.231 c 0,-67.761 -72.66,-122.832 -125.92,-122.832"
         style="fill:#535f64;fill-opacity:1;fill-rule:nonzero;stroke:none"
         id="path408" />
    </g>
  </g>
</svg>
